<svg id="svg" xmlns="http://www.w3.org/2000/svg" xmlns:xlink="http://www.w3.org/1999/xlink" width="400" height="485.03937007874015" viewBox="0, 0, 400,485.03937007874015" version="1.1"><g id="svgg"><path id="path0" d="M223.400 142.403 C 217.185 143.029,215.098 143.350,206.600 144.985 C 201.689 145.930,192.643 148.407,191.105 149.229 C 190.723 149.433,190.042 149.600,189.591 149.600 C 189.141 149.600,188.373 149.847,187.886 150.149 C 187.399 150.451,186.010 151.023,184.800 151.421 C 179.589 153.133,166.613 159.435,162.080 162.454 C 161.134 163.084,160.289 163.600,160.202 163.600 C 159.675 163.600,149.402 170.853,145.562 173.936 C 144.373 174.891,142.590 176.322,141.600 177.118 C 136.388 181.304,124.959 193.564,118.626 201.762 C 116.816 204.106,110.400 213.549,110.400 213.869 C 110.400 213.987,109.868 214.873,109.217 215.837 C 107.292 218.689,101.666 230.280,99.430 236.000 C 99.043 236.990,98.499 238.340,98.220 239.000 C 97.942 239.660,97.403 241.190,97.023 242.400 C 96.643 243.610,96.166 244.960,95.963 245.400 C 95.144 247.173,91.588 261.430,90.973 265.400 C 88.796 279.478,88.599 282.104,88.613 296.800 C 88.630 314.872,89.903 324.512,94.210 339.200 C 94.565 340.410,95.011 341.940,95.201 342.600 C 95.806 344.704,97.657 350.157,98.187 351.400 C 98.469 352.060,99.019 353.410,99.410 354.400 C 100.297 356.650,101.089 358.441,103.214 363.000 C 105.811 368.575,105.946 368.846,107.393 371.400 C 108.141 372.720,109.149 374.520,109.631 375.400 C 110.114 376.280,111.025 377.752,111.655 378.672 C 112.285 379.592,112.800 380.442,112.800 380.562 C 112.800 380.845,117.573 387.559,118.496 388.575 C 118.883 389.002,119.200 389.475,119.200 389.626 C 119.200 389.778,120.302 391.229,121.648 392.851 C 129.266 402.028,138.601 411.149,146.792 417.417 C 148.217 418.508,149.567 419.543,149.792 419.719 C 150.016 419.894,151.460 420.920,153.000 422.000 C 154.540 423.080,155.980 424.115,156.200 424.302 C 156.420 424.488,156.870 424.768,157.200 424.925 C 157.530 425.081,158.340 425.565,159.000 426.000 C 159.660 426.435,160.470 426.915,160.800 427.066 C 161.130 427.218,162.120 427.800,163.000 428.361 C 165.495 429.949,175.572 435.200,176.126 435.200 C 176.276 435.200,177.523 435.715,178.899 436.345 C 183.668 438.527,191.704 441.415,197.600 443.065 C 204.342 444.952,206.943 445.600,207.780 445.600 C 208.249 445.600,209.615 445.843,210.816 446.141 C 223.876 449.376,253.962 449.982,263.597 447.203 C 264.366 446.981,265.584 446.800,266.303 446.800 C 267.023 446.800,268.644 446.545,269.906 446.234 C 271.168 445.923,273.640 445.356,275.400 444.975 C 277.160 444.594,279.410 444.055,280.400 443.778 C 281.390 443.500,283.280 442.973,284.600 442.606 C 285.920 442.239,287.360 441.792,287.800 441.612 C 288.240 441.432,289.500 440.976,290.600 440.598 C 292.964 439.787,299.346 437.325,300.319 436.850 C 300.694 436.667,301.630 436.244,302.400 435.909 C 303.170 435.574,304.905 434.738,306.256 434.050 C 307.607 433.363,308.987 432.800,309.323 432.800 C 309.659 432.800,309.993 432.651,310.067 432.468 C 310.140 432.285,311.370 431.522,312.800 430.772 C 314.230 430.022,316.146 428.911,317.058 428.304 C 317.970 427.697,318.832 427.200,318.974 427.200 C 319.330 427.200,321.769 425.469,321.933 425.100 C 322.007 424.935,322.220 424.800,322.408 424.800 C 323.303 424.800,334.228 416.704,339.941 411.807 C 343.843 408.462,351.273 400.527,357.752 392.786 C 359.546 390.643,362.304 386.878,364.189 384.000 C 365.270 382.350,366.262 380.910,366.395 380.800 C 366.746 380.508,371.239 372.909,372.307 370.800 C 372.808 369.810,373.378 368.730,373.573 368.400 C 373.944 367.772,376.666 362.010,377.729 359.600 C 381.776 350.427,386.569 335.357,388.035 327.200 C 390.550 313.201,390.826 310.542,391.083 297.800 C 391.212 291.435,391.112 286.128,390.809 283.200 C 390.096 276.320,388.839 266.787,388.434 265.200 C 388.238 264.430,387.770 262.360,387.395 260.600 C 386.601 256.876,385.736 253.501,385.141 251.800 C 384.910 251.140,384.579 249.970,384.404 249.200 C 384.229 248.430,383.734 246.810,383.304 245.600 C 382.873 244.390,382.110 242.230,381.607 240.800 C 381.105 239.370,380.569 238.020,380.416 237.800 C 380.263 237.580,379.808 236.500,379.406 235.400 C 378.655 233.346,374.292 223.874,373.603 222.800 C 373.392 222.470,372.804 221.390,372.298 220.400 C 371.791 219.410,370.887 217.839,370.288 216.908 C 369.690 215.977,369.200 215.120,369.200 215.003 C 369.200 214.807,367.679 212.452,364.677 208.000 C 362.755 205.150,355.783 195.959,354.208 194.200 C 346.442 185.525,337.968 177.564,331.000 172.396 C 327.215 169.588,319.005 163.957,317.993 163.474 C 317.667 163.319,316.860 162.845,316.200 162.421 C 315.100 161.715,311.397 159.707,307.400 157.649 C 304.747 156.284,300.677 154.400,300.379 154.400 C 300.225 154.400,299.042 153.922,297.750 153.337 C 295.454 152.299,290.196 150.331,287.800 149.615 C 287.140 149.417,285.610 148.956,284.400 148.590 C 279.023 146.965,278.053 146.695,275.600 146.147 C 270.247 144.951,267.320 144.381,264.600 144.003 C 263.060 143.789,260.990 143.435,260.000 143.216 C 253.021 141.674,234.684 141.266,223.400 142.403 M262.800 196.400 C 262.800 196.620,261.799 196.800,260.576 196.800 C 259.196 196.800,258.447 196.648,258.600 196.400 C 258.736 196.180,259.737 196.000,260.824 196.000 C 261.911 196.000,262.800 196.180,262.800 196.400 M219.105 197.075 C 218.722 197.175,218.002 197.179,217.505 197.083 C 217.007 196.987,217.320 196.905,218.200 196.901 C 219.080 196.896,219.487 196.975,219.105 197.075 M256.700 197.076 C 256.315 197.176,255.685 197.176,255.300 197.076 C 254.915 196.975,255.230 196.893,256.000 196.893 C 256.770 196.893,257.085 196.975,256.700 197.076 M228.509 199.362 C 235.131 202.530,239.216 211.218,236.988 217.400 C 236.671 218.280,236.409 219.253,236.406 219.561 C 236.388 221.229,233.242 226.609,228.911 232.377 C 225.698 236.657,225.186 236.437,238.061 236.307 L 248.569 236.200 249.477 234.800 C 249.977 234.030,250.530 233.220,250.707 233.000 C 250.883 232.780,251.430 231.821,251.923 230.869 L 252.819 229.139 251.110 227.220 C 250.169 226.165,249.104 224.694,248.743 223.951 C 247.441 221.272,246.800 219.668,246.800 219.088 C 246.800 218.764,246.530 217.851,246.200 217.062 C 245.229 214.739,245.376 207.814,246.439 205.794 C 251.901 195.413,268.743 195.323,274.314 205.646 C 279.056 214.435,273.914 226.728,264.400 229.347 C 263.370 229.631,258.269 235.736,258.701 236.168 C 258.829 236.296,263.718 236.401,269.567 236.401 C 281.945 236.403,285.924 236.950,291.860 239.466 C 292.554 239.760,293.226 240.000,293.355 240.000 C 295.375 240.000,304.310 247.335,307.484 251.600 C 312.785 258.724,315.790 271.994,313.521 278.267 C 313.084 279.475,313.132 279.689,314.064 280.696 C 315.535 282.285,322.000 291.347,322.000 291.818 C 322.000 291.910,322.675 293.117,323.500 294.500 C 325.154 297.272,325.930 298.803,327.198 301.800 C 327.663 302.900,328.199 304.160,328.388 304.600 C 328.577 305.040,329.040 306.390,329.416 307.600 C 329.792 308.810,330.347 310.526,330.650 311.413 C 330.952 312.301,331.200 313.577,331.200 314.250 C 331.200 314.922,331.468 316.356,331.796 317.436 C 332.508 319.785,332.653 334.554,331.985 336.803 C 331.757 337.571,331.410 339.280,331.214 340.600 C 330.841 343.111,330.128 346.040,329.558 347.400 C 329.374 347.840,328.832 349.370,328.354 350.800 C 323.935 364.009,314.861 375.579,302.600 383.641 C 297.522 386.980,288.182 391.278,283.486 392.437 C 282.654 392.642,281.664 392.967,281.286 393.158 C 280.519 393.547,277.824 394.287,275.400 394.774 C 274.520 394.950,272.990 395.288,272.000 395.524 C 269.286 396.171,265.329 396.861,262.200 397.231 C 260.660 397.414,258.140 397.746,256.600 397.969 C 252.995 398.490,229.864 398.496,226.200 397.976 C 224.660 397.758,222.320 397.487,221.000 397.374 C 218.276 397.140,212.285 396.169,209.600 395.526 C 208.610 395.289,207.080 394.945,206.200 394.761 C 203.181 394.131,200.199 393.340,199.074 392.870 C 198.455 392.612,197.825 392.400,197.674 392.399 C 197.523 392.399,195.330 391.612,192.800 390.652 C 176.694 384.536,164.033 374.356,156.144 361.179 C 153.933 357.486,152.394 354.216,150.396 348.968 C 150.048 348.054,148.842 343.128,147.791 338.322 C 147.026 334.827,147.103 323.649,147.915 320.400 C 148.380 318.538,149.002 315.777,149.581 313.000 C 149.765 312.120,150.310 310.410,150.791 309.200 C 151.273 307.990,151.764 306.640,151.881 306.200 C 153.120 301.559,162.073 286.203,166.104 281.805 L 167.208 280.600 166.965 275.000 C 166.584 266.201,167.922 260.915,172.238 254.168 C 174.437 250.730,182.175 243.200,183.509 243.200 C 183.725 243.200,184.107 242.953,184.357 242.652 C 184.983 241.898,189.262 239.848,192.400 238.798 C 197.625 237.052,199.781 236.705,206.986 236.452 L 214.172 236.200 215.665 233.280 C 217.436 229.819,217.386 229.592,214.553 228.158 C 205.255 223.454,203.037 209.194,210.523 202.242 C 215.026 198.059,223.088 196.768,228.509 199.362 M253.200 198.400 C 253.200 198.620,252.795 198.797,252.300 198.794 C 251.572 198.789,251.515 198.714,252.000 198.400 C 252.776 197.899,253.200 197.899,253.200 198.400 M269.200 198.400 C 269.685 198.714,269.628 198.789,268.900 198.794 C 268.405 198.797,268.000 198.620,268.000 198.400 C 268.000 197.899,268.424 197.899,269.200 198.400 M273.330 202.114 C 273.180 202.356,272.860 202.223,272.539 201.784 C 271.731 200.679,271.890 200.177,272.791 200.991 C 273.225 201.385,273.468 201.890,273.330 202.114 M234.000 201.400 C 234.278 201.735,234.321 202.000,234.098 202.000 C 233.878 202.000,233.474 201.730,233.200 201.400 C 232.922 201.065,232.879 200.800,233.102 200.800 C 233.322 200.800,233.726 201.070,234.000 201.400 M236.400 204.624 C 236.400 204.941,236.220 205.200,236.000 205.200 C 235.780 205.200,235.600 204.829,235.600 204.376 C 235.600 203.923,235.780 203.664,236.000 203.800 C 236.220 203.936,236.400 204.307,236.400 204.624 M275.594 205.100 C 275.589 205.957,275.502 206.068,275.200 205.600 C 274.694 204.817,274.694 204.000,275.200 204.000 C 275.420 204.000,275.597 204.495,275.594 205.100 M238.766 213.800 C 238.754 216.000,238.589 218.160,238.400 218.600 C 238.185 219.101,238.048 217.384,238.034 214.000 C 238.019 210.375,238.140 208.797,238.400 209.200 C 238.613 209.530,238.778 211.600,238.766 213.800 M243.887 212.700 C 243.795 213.305,243.720 212.810,243.720 211.600 C 243.720 210.390,243.795 209.895,243.887 210.500 C 243.978 211.105,243.978 212.095,243.887 212.700 M278.000 213.576 C 278.000 215.323,277.820 216.864,277.600 217.000 C 277.345 217.157,277.200 216.004,277.200 213.824 C 277.200 211.808,277.364 210.400,277.600 210.400 C 277.833 210.400,278.000 211.725,278.000 213.576 M246.400 220.647 C 246.400 221.212,246.226 221.540,246.000 221.400 C 245.780 221.264,245.600 220.703,245.600 220.153 C 245.600 219.588,245.774 219.260,246.000 219.400 C 246.220 219.536,246.400 220.097,246.400 220.647 M275.717 221.596 C 275.603 222.033,275.357 222.297,275.172 222.183 C 274.778 221.939,275.135 220.800,275.605 220.800 C 275.781 220.800,275.831 221.158,275.717 221.596 M236.038 224.522 C 235.721 224.839,235.600 224.735,235.600 224.147 C 235.600 223.089,236.159 222.528,236.338 223.407 C 236.413 223.780,236.278 224.282,236.038 224.522 M251.374 228.759 C 251.628 229.168,250.649 231.716,250.352 231.419 C 250.245 231.312,250.232 230.589,250.323 229.812 C 250.482 228.448,250.915 228.015,251.374 228.759 M214.446 233.518 C 214.201 233.600,214.000 234.102,214.000 234.633 C 214.000 235.351,213.782 235.600,213.153 235.600 C 212.328 235.600,212.333 235.563,213.353 234.227 C 213.929 233.471,214.421 232.616,214.446 232.327 C 214.472 232.037,214.582 232.153,214.692 232.585 C 214.802 233.016,214.691 233.436,214.446 233.518 M248.514 234.500 L 247.755 235.800 237.676 235.882 L 227.598 235.964 228.260 234.685 C 228.912 233.424,228.927 233.418,229.322 234.303 C 229.810 235.396,248.000 235.764,248.000 234.680 C 248.000 234.200,248.754 233.200,249.117 233.200 C 249.203 233.200,248.932 233.785,248.514 234.500 M262.000 234.800 C 262.000 235.057,265.904 235.202,272.900 235.206 C 279.246 235.210,284.051 235.374,284.400 235.600 C 284.794 235.855,280.647 235.990,272.300 235.994 C 265.315 235.997,259.600 235.923,259.600 235.829 C 259.600 235.734,259.883 235.374,260.229 235.029 C 260.932 234.325,262.000 234.187,262.000 234.800 M204.200 235.600 C 204.064 235.820,202.568 235.997,200.876 235.994 C 198.742 235.990,197.984 235.869,198.400 235.600 C 199.212 235.075,204.524 235.075,204.200 235.600 M192.200 238.000 C 192.064 238.220,191.503 238.400,190.953 238.400 C 190.388 238.400,190.060 238.226,190.200 238.000 C 190.336 237.780,190.897 237.600,191.447 237.600 C 192.012 237.600,192.340 237.774,192.200 238.000 M292.200 238.000 C 292.516 238.511,291.190 238.511,290.400 238.000 C 289.931 237.697,290.034 237.611,290.876 237.606 C 291.468 237.603,292.064 237.780,292.200 238.000 M308.400 250.558 C 308.400 251.252,307.580 250.642,307.029 249.539 C 306.169 247.814,306.234 247.742,307.400 249.127 C 307.950 249.781,308.400 250.425,308.400 250.558 M202.800 251.504 C 188.516 252.993,180.800 261.070,180.800 274.532 C 180.800 281.588,180.429 282.675,176.000 288.583 C 171.641 294.399,169.819 297.271,167.110 302.600 C 165.852 305.074,165.320 306.243,164.015 309.400 C 155.156 330.835,161.492 355.430,179.400 369.127 C 180.720 370.137,181.890 371.076,182.000 371.214 C 182.304 371.595,187.612 374.969,189.200 375.790 C 189.970 376.188,190.870 376.669,191.200 376.859 C 191.530 377.050,192.070 377.317,192.400 377.453 C 192.730 377.590,194.125 378.219,195.501 378.851 C 196.877 379.483,198.236 380.000,198.521 380.000 C 198.806 380.000,199.211 380.158,199.420 380.351 C 199.745 380.652,202.745 381.617,206.400 382.597 C 213.094 384.391,224.088 385.275,242.400 385.489 C 261.716 385.716,266.780 385.168,279.200 381.508 C 292.651 377.544,304.874 368.205,311.650 356.715 C 313.731 353.187,315.200 350.316,315.200 349.776 C 315.200 349.495,315.452 348.755,315.761 348.132 C 316.913 345.804,317.600 343.948,317.600 343.160 C 317.600 342.713,317.799 341.976,318.041 341.523 C 319.691 338.441,320.541 321.832,319.256 317.800 C 319.046 317.140,318.300 314.800,317.599 312.600 C 315.276 305.307,310.816 297.386,304.422 289.200 C 299.620 283.052,299.842 283.722,299.929 275.650 C 300.050 264.534,296.508 258.069,288.200 254.240 C 287.320 253.834,286.090 253.254,285.468 252.951 C 284.845 252.648,283.927 252.400,283.427 252.400 C 282.928 252.400,281.998 252.222,281.360 252.005 C 280.352 251.661,205.848 251.187,202.800 251.504 M202.600 253.223 C 200.299 253.699,197.100 253.685,197.400 253.200 C 197.536 252.980,199.118 252.821,200.924 252.846 C 203.743 252.886,203.977 252.938,202.600 253.223 M260.729 253.100 C 253.320 253.161,241.080 253.161,233.529 253.100 C 225.978 253.039,232.040 252.989,247.000 252.989 C 261.960 252.989,268.138 253.039,260.729 253.100 M283.600 253.200 C 283.600 253.661,281.098 253.670,278.200 253.218 C 276.408 252.939,276.584 252.901,279.900 252.853 C 282.136 252.821,283.600 252.958,283.600 253.200 M193.200 255.600 C 192.417 256.106,191.600 256.106,191.600 255.600 C 191.600 255.380,192.095 255.203,192.700 255.206 C 193.557 255.211,193.668 255.298,193.200 255.600 M288.919 255.641 C 288.602 255.958,288.268 255.961,287.739 255.654 C 287.091 255.277,287.146 255.223,288.180 255.212 C 289.041 255.203,289.240 255.320,288.919 255.641 M312.794 258.100 C 312.797 258.485,312.620 258.800,312.400 258.800 C 312.180 258.800,312.003 258.215,312.006 257.500 C 312.011 256.514,312.106 256.345,312.400 256.800 C 312.613 257.130,312.791 257.715,312.794 258.100 M292.800 258.000 C 292.800 258.501,292.376 258.501,291.600 258.000 C 291.115 257.686,291.172 257.611,291.900 257.606 C 292.395 257.603,292.800 257.780,292.800 258.000 M295.200 260.649 C 295.200 261.180,295.091 261.208,294.600 260.800 C 294.270 260.526,294.000 260.234,294.000 260.151 C 294.000 260.068,294.270 260.000,294.600 260.000 C 294.930 260.000,295.200 260.292,295.200 260.649 M184.040 264.685 C 183.656 265.345,183.623 265.336,183.612 264.567 C 183.599 263.641,184.106 262.919,184.320 263.560 C 184.395 263.785,184.269 264.292,184.040 264.685 M315.166 266.200 C 315.125 269.877,314.458 270.059,314.434 266.400 C 314.419 264.066,314.534 263.188,314.800 263.600 C 315.013 263.930,315.178 265.100,315.166 266.200 M242.520 268.248 C 245.543 269.779,246.400 271.506,246.400 276.069 L 246.400 279.241 247.787 279.820 C 248.550 280.139,249.619 280.400,250.164 280.400 C 250.708 280.400,251.255 280.566,251.381 280.769 C 251.506 280.972,252.192 281.262,252.905 281.414 C 263.125 283.586,268.210 294.255,261.338 299.109 C 258.127 301.377,255.212 300.367,251.689 295.767 C 247.247 289.965,233.127 289.796,228.545 295.490 C 223.602 301.633,227.791 307.729,237.968 309.203 C 239.196 309.381,240.707 309.723,241.326 309.963 C 241.945 310.203,242.920 310.400,243.491 310.400 C 244.996 310.400,252.171 312.443,255.200 313.734 C 259.421 315.533,265.294 320.370,266.445 322.994 C 266.639 323.437,266.959 324.070,267.156 324.400 C 268.680 326.956,269.221 332.933,268.188 335.800 C 267.871 336.680,267.609 337.689,267.606 338.042 C 267.594 339.315,264.955 343.605,262.825 345.814 C 258.164 350.647,254.556 352.648,246.900 354.644 C 246.540 354.738,246.400 355.942,246.400 358.928 C 246.400 364.880,244.553 367.405,240.245 367.343 C 235.856 367.280,234.400 365.305,234.400 359.415 C 234.400 354.938,234.070 354.407,231.271 354.386 C 230.242 354.378,228.950 354.114,228.400 353.800 C 227.850 353.486,227.010 353.222,226.532 353.214 C 226.055 353.206,225.155 352.947,224.532 352.638 C 223.910 352.329,222.500 351.672,221.400 351.177 C 214.054 347.876,211.189 342.496,214.410 338.050 C 217.158 334.257,220.954 333.982,224.205 337.341 C 233.858 347.313,254.963 344.475,254.993 333.200 C 255.008 327.416,251.461 325.016,240.243 323.222 C 233.755 322.184,227.642 320.398,223.225 318.252 C 220.563 316.958,216.335 313.237,215.610 311.551 C 215.386 311.028,215.038 310.330,214.838 310.000 C 212.463 306.090,212.709 296.919,215.312 292.281 C 218.560 286.496,226.020 280.983,231.548 280.284 C 233.944 279.981,234.114 279.700,234.056 276.127 C 233.956 269.844,238.084 266.002,242.520 268.248 M181.973 272.300 C 181.950 273.929,181.886 274.075,181.523 273.325 C 181.139 272.530,181.346 270.400,181.808 270.400 C 181.913 270.400,181.988 271.255,181.973 272.300 M233.600 274.800 C 233.600 278.533,233.547 278.800,232.800 278.800 C 231.842 278.800,231.740 278.185,232.641 277.840 C 233.156 277.642,233.263 277.063,233.184 274.897 C 233.070 271.772,233.121 270.800,233.400 270.800 C 233.510 270.800,233.600 272.600,233.600 274.800 M248.107 278.773 C 247.651 279.432,247.408 277.710,247.574 275.000 L 247.771 271.800 247.999 275.200 C 248.124 277.070,248.173 278.678,248.107 278.773 M315.153 277.700 C 315.179 278.998,315.026 280.000,314.800 280.000 C 314.560 280.000,314.419 278.598,314.447 276.500 C 314.500 272.619,315.068 273.586,315.153 277.700 M181.629 282.131 C 181.118 282.642,181.024 280.894,181.500 279.733 C 181.732 279.165,181.829 279.304,181.929 280.351 C 182.000 281.094,181.865 281.895,181.629 282.131 M252.400 279.600 C 252.846 279.888,252.616 279.989,251.500 279.994 C 250.675 279.997,250.000 279.820,250.000 279.600 C 250.000 279.091,251.612 279.091,252.400 279.600 M255.100 280.676 C 254.715 280.776,254.085 280.776,253.700 280.676 C 253.315 280.575,253.630 280.493,254.400 280.493 C 255.170 280.493,255.485 280.575,255.100 280.676 M258.600 282.210 C 259.925 283.026,260.045 283.196,259.300 283.198 C 258.805 283.199,258.400 283.020,258.400 282.800 C 258.400 282.580,258.175 282.394,257.900 282.387 C 257.625 282.380,257.051 282.110,256.624 281.787 C 255.309 280.793,256.826 281.118,258.600 282.210 M266.388 293.200 C 266.388 293.970,266.213 294.870,266.000 295.200 C 265.728 295.621,265.612 295.025,265.612 293.200 C 265.612 291.375,265.728 290.779,266.000 291.200 C 266.213 291.530,266.388 292.430,266.388 293.200 M214.000 293.080 C 214.000 293.823,213.871 294.031,213.587 293.747 C 213.360 293.520,213.289 293.034,213.430 292.667 C 213.800 291.701,214.000 291.846,214.000 293.080 M244.749 292.615 C 244.850 292.717,243.578 292.800,241.922 292.800 C 240.267 292.800,238.077 292.914,237.056 293.054 C 235.838 293.221,235.200 293.160,235.200 292.877 C 235.200 292.200,244.089 291.956,244.749 292.615 M249.600 294.847 C 249.600 295.386,248.954 295.268,248.426 294.631 C 248.039 294.165,248.102 294.102,248.777 294.278 C 249.230 294.396,249.600 294.652,249.600 294.847 M231.600 294.757 C 231.600 295.163,230.382 295.715,230.103 295.436 C 230.002 295.335,230.039 295.061,230.184 294.827 C 230.503 294.310,231.600 294.256,231.600 294.757 M229.064 297.129 C 228.699 297.533,228.400 298.243,228.400 298.708 C 228.400 299.173,228.213 299.668,227.984 299.810 C 227.712 299.978,227.659 299.675,227.832 298.934 C 228.153 297.550,229.178 295.845,229.496 296.163 C 229.624 296.291,229.430 296.725,229.064 297.129 M265.280 297.280 C 264.907 297.653,264.800 297.547,264.800 296.800 C 264.800 296.053,264.907 295.947,265.280 296.320 C 265.653 296.693,265.653 296.907,265.280 297.280 M228.780 303.600 C 228.944 303.930,229.511 304.422,230.039 304.694 L 231.000 305.188 230.094 305.194 C 229.082 305.201,227.586 303.141,227.629 301.800 C 227.650 301.116,227.714 301.145,228.068 302.000 C 228.295 302.550,228.616 303.270,228.780 303.600 M330.182 305.100 C 330.332 305.597,330.282 306.000,330.070 306.000 C 329.633 306.000,329.200 305.048,329.200 304.087 C 329.200 303.257,329.817 303.894,330.182 305.100 M236.683 307.349 C 236.820 307.487,236.203 307.600,235.309 307.600 C 234.316 307.600,233.605 307.391,233.478 307.060 C 233.267 306.509,236.098 306.764,236.683 307.349 M213.972 310.300 C 213.947 311.260,213.903 311.298,213.622 310.600 C 213.445 310.160,213.378 309.665,213.474 309.500 C 213.812 308.914,214.000 309.215,213.972 310.300 M247.600 309.600 C 248.031 309.879,247.637 309.988,246.200 309.988 C 245.100 309.988,243.930 309.813,243.600 309.600 C 243.169 309.321,243.563 309.212,245.000 309.212 C 246.100 309.212,247.270 309.387,247.600 309.600 M332.388 313.200 C 332.388 314.508,332.282 314.836,332.000 314.400 C 331.787 314.070,331.612 312.990,331.612 312.000 C 331.612 310.692,331.718 310.364,332.000 310.800 C 332.213 311.130,332.388 312.210,332.388 313.200 M164.477 312.665 C 164.068 313.787,164.063 313.782,164.032 312.220 C 164.008 311.060,164.118 310.758,164.445 311.085 C 164.761 311.401,164.770 311.860,164.477 312.665 M255.000 312.000 C 255.140 312.226,254.812 312.400,254.247 312.400 C 253.697 312.400,253.136 312.220,253.000 312.000 C 252.860 311.774,253.188 311.600,253.753 311.600 C 254.303 311.600,254.864 311.780,255.000 312.000 M259.600 314.400 C 259.600 314.620,259.341 314.800,259.024 314.800 C 258.707 314.800,258.336 314.620,258.200 314.400 C 258.064 314.180,258.323 314.000,258.776 314.000 C 259.229 314.000,259.600 314.180,259.600 314.400 M317.883 318.095 C 317.787 318.593,317.705 318.280,317.701 317.400 C 317.696 316.520,317.775 316.113,317.875 316.495 C 317.975 316.878,317.979 317.598,317.883 318.095 M333.483 320.095 C 333.387 320.593,333.305 320.280,333.301 319.400 C 333.296 318.520,333.375 318.113,333.475 318.495 C 333.575 318.878,333.579 319.598,333.483 320.095 M162.183 321.900 C 161.808 325.500,161.600 325.560,161.600 322.067 C 161.600 320.281,161.763 319.200,162.032 319.200 C 162.326 319.200,162.374 320.060,162.183 321.900 M229.000 321.600 C 229.315 322.109,228.388 322.109,227.600 321.600 C 227.112 321.285,227.164 321.211,227.876 321.206 C 228.358 321.203,228.864 321.380,229.000 321.600 M268.800 324.424 C 268.800 324.851,268.620 325.200,268.400 325.200 C 268.180 325.200,268.000 324.739,268.000 324.176 C 268.000 323.596,268.173 323.260,268.400 323.400 C 268.620 323.536,268.800 323.997,268.800 324.424 M239.000 324.000 C 239.279 324.452,238.375 324.452,236.600 324.000 C 235.467 323.712,235.493 323.692,237.076 323.647 C 237.998 323.621,238.864 323.780,239.000 324.000 M248.700 326.276 C 248.315 326.376,247.685 326.376,247.300 326.276 C 246.915 326.175,247.230 326.093,248.000 326.093 C 248.770 326.093,249.085 326.175,248.700 326.276 M269.897 334.084 C 269.818 335.468,269.753 334.440,269.753 331.800 C 269.752 329.160,269.816 328.028,269.895 329.284 C 269.974 330.541,269.975 332.701,269.897 334.084 M253.050 328.987 C 253.457 330.048,253.011 330.396,252.538 329.387 C 252.279 328.835,252.241 328.400,252.450 328.400 C 252.656 328.400,252.926 328.664,253.050 328.987 M253.887 334.300 C 253.795 334.905,253.720 334.410,253.720 333.200 C 253.720 331.990,253.795 331.495,253.887 332.100 C 253.978 332.705,253.978 333.695,253.887 334.300 M222.000 334.000 C 222.000 334.223,220.925 334.400,219.576 334.400 C 218.063 334.400,217.246 334.250,217.400 334.000 C 217.536 333.780,218.627 333.600,219.824 333.600 C 221.021 333.600,222.000 333.780,222.000 334.000 M253.594 336.100 C 253.586 336.769,252.896 337.830,252.638 337.571 C 252.328 337.261,252.841 335.600,253.247 335.600 C 253.441 335.600,253.597 335.825,253.594 336.100 M317.887 338.295 C 317.795 338.903,317.717 338.500,317.714 337.400 C 317.711 336.300,317.787 335.803,317.882 336.295 C 317.977 336.786,317.979 337.686,317.887 338.295 M162.360 339.100 C 162.382 339.815,162.220 340.400,162.000 340.400 C 161.775 340.400,161.617 339.393,161.640 338.100 C 161.683 335.637,162.279 336.466,162.360 339.100 M250.931 339.247 C 250.465 339.713,249.841 340.014,249.545 339.915 C 249.209 339.803,249.456 339.501,250.204 339.110 C 251.835 338.257,251.907 338.271,250.931 339.247 M248.400 340.800 C 248.400 341.020,247.905 341.187,247.300 341.172 C 246.325 341.147,246.291 341.105,247.000 340.800 C 248.093 340.331,248.400 340.331,248.400 340.800 M332.026 344.134 C 331.521 344.639,331.421 342.102,331.900 340.933 C 332.113 340.413,332.237 340.710,332.326 341.954 C 332.395 342.919,332.260 343.900,332.026 344.134 M232.300 341.076 C 231.915 341.176,231.285 341.176,230.900 341.076 C 230.515 340.975,230.830 340.893,231.600 340.893 C 232.370 340.893,232.685 340.975,232.300 341.076 M244.000 342.079 C 242.104 342.469,234.002 342.162,233.520 341.681 C 233.365 341.526,236.064 341.469,239.519 341.554 C 244.674 341.681,245.477 341.775,244.000 342.079 M164.412 347.748 C 164.129 348.031,164.008 347.727,164.025 346.780 C 164.049 345.483,164.074 345.458,164.438 346.368 C 164.694 347.009,164.685 347.475,164.412 347.748 M314.800 348.680 C 314.800 349.423,314.671 349.631,314.387 349.347 C 314.160 349.120,314.089 348.634,314.230 348.267 C 314.600 347.301,314.800 347.446,314.800 348.680 M329.830 351.503 C 329.359 351.975,329.171 351.257,329.476 350.147 L 329.790 349.000 329.925 350.137 C 329.999 350.762,329.957 351.377,329.830 351.503 M312.235 354.298 C 311.805 354.728,311.577 354.126,311.879 353.357 C 312.162 352.636,312.183 352.635,312.324 353.331 C 312.404 353.734,312.365 354.169,312.235 354.298 M226.400 354.000 C 226.400 354.509,224.788 354.509,224.000 354.000 C 223.554 353.712,223.784 353.611,224.900 353.606 C 225.725 353.603,226.400 353.780,226.400 354.000 M254.000 354.000 C 253.214 354.508,252.000 354.508,252.000 354.000 C 252.000 353.780,252.585 353.603,253.300 353.606 C 254.286 353.611,254.455 353.706,254.000 354.000 M230.300 355.476 C 229.915 355.576,229.285 355.576,228.900 355.476 C 228.515 355.375,228.830 355.293,229.600 355.293 C 230.370 355.293,230.685 355.375,230.300 355.476 M249.200 355.557 C 248.239 355.823,248.191 355.991,247.977 359.817 L 247.755 363.800 247.672 360.400 C 247.626 358.530,247.481 356.595,247.348 356.100 C 247.127 355.276,247.237 355.203,248.653 355.240 C 249.955 355.273,250.041 355.324,249.200 355.557 M233.575 360.300 C 233.558 363.368,233.429 364.702,233.203 364.141 C 233.012 363.668,232.898 361.899,232.950 360.209 C 233.030 357.580,232.934 357.059,232.285 356.604 C 231.505 356.058,231.675 355.898,233.300 355.646 C 233.465 355.621,233.589 357.715,233.575 360.300 M181.717 369.249 C 182.497 370.000,182.507 370.048,181.800 369.663 C 180.241 368.813,179.768 368.413,180.317 368.406 C 180.601 368.403,181.231 368.782,181.717 369.249 M240.700 369.076 C 240.315 369.176,239.685 369.176,239.300 369.076 C 238.915 368.975,239.230 368.893,240.000 368.893 C 240.770 368.893,241.085 368.975,240.700 369.076 M185.211 371.600 C 185.498 371.600,185.613 371.720,185.466 371.867 C 185.067 372.266,183.187 371.144,183.475 370.679 C 183.621 370.442,183.919 370.548,184.205 370.939 C 184.471 371.303,184.923 371.600,185.211 371.600 M187.600 373.200 C 188.085 373.514,188.028 373.589,187.300 373.594 C 186.805 373.597,186.400 373.420,186.400 373.200 C 186.400 372.699,186.824 372.699,187.600 373.200 M314.957 375.369 C 314.747 375.915,313.600 376.593,313.600 376.171 C 313.600 375.851,314.568 374.832,314.887 374.815 C 315.046 374.807,315.077 375.056,314.957 375.369 M192.200 375.600 C 192.336 375.820,192.077 376.000,191.624 376.000 C 191.171 376.000,190.800 375.820,190.800 375.600 C 190.800 375.380,191.059 375.200,191.376 375.200 C 191.693 375.200,192.064 375.380,192.200 375.600 M291.200 375.600 C 291.200 375.820,290.829 376.000,290.376 376.000 C 289.923 376.000,289.664 375.820,289.800 375.600 C 289.936 375.380,290.307 375.200,290.624 375.200 C 290.941 375.200,291.200 375.380,291.200 375.600 M197.200 378.000 C 197.668 378.302,197.557 378.389,196.700 378.394 C 196.095 378.397,195.600 378.220,195.600 378.000 C 195.600 377.494,196.417 377.494,197.200 378.000 M286.400 378.243 C 286.400 378.329,285.905 378.397,285.300 378.394 C 284.499 378.389,284.353 378.291,284.764 378.031 C 285.273 377.708,286.400 377.854,286.400 378.243 M199.900 379.076 C 199.515 379.176,198.885 379.176,198.500 379.076 C 198.115 378.975,198.430 378.893,199.200 378.893 C 199.970 378.893,200.285 378.975,199.900 379.076 M203.800 380.400 C 203.936 380.620,203.687 380.800,203.247 380.800 C 202.807 380.800,202.336 380.620,202.200 380.400 C 202.064 380.180,202.313 380.000,202.753 380.000 C 203.193 380.000,203.664 380.180,203.800 380.400 M207.200 381.200 C 208.050 381.472,207.944 381.526,206.500 381.560 C 205.565 381.582,204.800 381.420,204.800 381.200 C 204.800 380.739,205.761 380.739,207.200 381.200 M276.305 381.475 C 275.922 381.575,275.202 381.579,274.705 381.483 C 274.207 381.387,274.520 381.305,275.400 381.301 C 276.280 381.296,276.687 381.375,276.305 381.475 M227.000 383.581 L 231.000 383.868 225.000 383.906 C 221.700 383.927,218.640 383.789,218.200 383.600 C 217.217 383.178,221.257 383.169,227.000 383.581 M266.000 383.600 C 265.670 383.813,264.050 383.967,262.400 383.941 C 260.036 383.905,259.697 383.832,260.800 383.600 C 262.999 383.137,266.716 383.137,266.000 383.600 M191.200 391.047 C 191.200 391.131,190.750 391.200,190.200 391.200 C 189.650 391.200,189.200 391.045,189.200 390.855 C 189.200 390.666,189.650 390.597,190.200 390.702 C 190.750 390.807,191.200 390.962,191.200 391.047 M292.000 390.953 C 292.000 391.038,291.550 391.193,291.000 391.298 C 290.450 391.403,290.000 391.334,290.000 391.145 C 290.000 390.955,290.450 390.800,291.000 390.800 C 291.550 390.800,292.000 390.869,292.000 390.953 M197.600 393.200 C 198.046 393.488,197.816 393.589,196.700 393.594 C 195.875 393.597,195.200 393.420,195.200 393.200 C 195.200 392.691,196.812 392.691,197.600 393.200 M286.200 393.200 C 286.064 393.420,285.378 393.597,284.676 393.594 C 283.705 393.589,283.543 393.495,284.000 393.200 C 284.793 392.687,286.517 392.687,286.200 393.200 M206.000 395.600 C 206.440 395.884,206.153 395.989,204.924 395.994 C 204.002 395.997,203.136 395.820,203.000 395.600 C 202.680 395.082,205.198 395.082,206.000 395.600 M278.400 395.600 C 278.070 395.813,277.170 395.988,276.400 395.988 C 275.350 395.988,275.150 395.891,275.600 395.600 C 275.930 395.387,276.830 395.212,277.600 395.212 C 278.650 395.212,278.850 395.309,278.400 395.600 M218.135 398.089 C 217.277 398.365,216.375 398.365,215.335 398.089 C 213.889 397.706,213.963 397.683,216.600 397.682 C 219.061 397.682,219.247 397.731,218.135 398.089 M268.305 397.829 C 267.869 398.264,262.400 398.430,262.400 398.008 C 262.400 397.766,263.650 397.600,265.467 397.600 C 267.153 397.600,268.430 397.703,268.305 397.829 " stroke="none" fill="#3ba4a2" fill-rule="evenodd"></path><path id="path1" d="M218.000 198.346 C 210.301 199.990,206.400 205.171,206.400 213.751 C 206.400 221.123,208.708 225.201,214.553 228.158 C 217.386 229.592,217.436 229.819,215.665 233.280 L 214.172 236.200 206.986 236.452 C 199.781 236.705,197.625 237.052,192.400 238.798 C 189.262 239.848,184.983 241.898,184.357 242.652 C 184.107 242.953,183.725 243.200,183.509 243.200 C 182.175 243.200,174.437 250.730,172.238 254.168 C 167.922 260.915,166.584 266.201,166.965 275.000 L 167.208 280.600 166.104 281.805 C 162.073 286.203,153.120 301.559,151.881 306.200 C 151.764 306.640,151.273 307.990,150.791 309.200 C 150.310 310.410,149.765 312.120,149.581 313.000 C 149.002 315.777,148.380 318.538,147.915 320.400 C 147.103 323.649,147.026 334.827,147.791 338.322 C 148.842 343.128,150.048 348.054,150.396 348.968 C 152.394 354.216,153.933 357.486,156.144 361.179 C 164.033 374.356,176.694 384.536,192.800 390.652 C 195.330 391.612,197.523 392.399,197.674 392.399 C 197.825 392.400,198.455 392.612,199.074 392.870 C 200.199 393.340,203.181 394.131,206.200 394.761 C 207.080 394.945,208.610 395.289,209.600 395.526 C 212.285 396.169,218.276 397.140,221.000 397.374 C 222.320 397.487,224.660 397.758,226.200 397.976 C 229.864 398.496,252.995 398.490,256.600 397.969 C 258.140 397.746,260.660 397.414,262.200 397.231 C 265.329 396.861,269.286 396.171,272.000 395.524 C 272.990 395.288,274.520 394.950,275.400 394.774 C 277.824 394.287,280.519 393.547,281.286 393.158 C 281.664 392.967,282.654 392.642,283.486 392.437 C 293.023 390.083,306.085 382.372,313.882 374.491 C 319.766 368.544,325.628 358.949,328.354 350.800 C 328.832 349.370,329.374 347.840,329.558 347.400 C 330.128 346.040,330.841 343.111,331.214 340.600 C 331.410 339.280,331.757 337.571,331.985 336.803 C 332.653 334.554,332.508 319.785,331.796 317.436 C 331.468 316.356,331.200 314.922,331.200 314.250 C 331.200 313.577,330.952 312.301,330.650 311.413 C 330.347 310.526,329.792 308.810,329.416 307.600 C 329.040 306.390,328.577 305.040,328.388 304.600 C 328.199 304.160,327.663 302.900,327.198 301.800 C 325.930 298.803,325.154 297.272,323.500 294.500 C 322.675 293.117,322.000 291.910,322.000 291.818 C 322.000 291.347,315.535 282.285,314.064 280.696 C 313.132 279.689,313.084 279.475,313.521 278.267 C 315.790 271.994,312.785 258.724,307.484 251.600 C 304.310 247.335,295.375 240.000,293.355 240.000 C 293.226 240.000,292.554 239.760,291.860 239.466 C 285.924 236.950,281.945 236.403,269.567 236.401 C 263.718 236.401,258.829 236.296,258.701 236.168 C 258.269 235.736,263.370 229.631,264.400 229.347 C 273.914 226.728,279.056 214.435,274.314 205.646 C 268.743 195.323,251.901 195.413,246.439 205.794 C 245.376 207.814,245.229 214.739,246.200 217.062 C 246.530 217.851,246.800 218.764,246.800 219.088 C 246.800 219.668,247.441 221.272,248.743 223.951 C 249.104 224.694,250.169 226.165,251.110 227.220 L 252.819 229.139 251.923 230.869 C 251.430 231.821,250.883 232.780,250.707 233.000 C 250.530 233.220,249.977 234.030,249.477 234.800 L 248.569 236.200 238.061 236.307 C 225.186 236.437,225.698 236.657,228.911 232.377 C 233.242 226.609,236.388 221.229,236.406 219.561 C 236.409 219.253,236.671 218.280,236.988 217.400 C 240.718 207.048,229.582 195.873,218.000 198.346 M281.360 252.005 C 281.998 252.222,282.928 252.400,283.427 252.400 C 283.927 252.400,284.845 252.648,285.468 252.951 C 286.090 253.254,287.320 253.834,288.200 254.240 C 296.508 258.069,300.050 264.534,299.929 275.650 C 299.842 283.722,299.620 283.052,304.422 289.200 C 310.816 297.386,315.276 305.307,317.599 312.600 C 318.300 314.800,319.046 317.140,319.256 317.800 C 320.541 321.832,319.691 338.441,318.041 341.523 C 317.799 341.976,317.600 342.713,317.600 343.160 C 317.600 343.948,316.913 345.804,315.761 348.132 C 315.452 348.755,315.200 349.495,315.200 349.776 C 315.200 350.316,313.731 353.187,311.650 356.715 C 304.874 368.205,292.651 377.544,279.200 381.508 C 266.780 385.168,261.716 385.716,242.400 385.489 C 224.088 385.275,213.094 384.391,206.400 382.597 C 202.745 381.617,199.745 380.652,199.420 380.351 C 199.211 380.158,198.806 380.000,198.521 380.000 C 198.236 380.000,196.877 379.483,195.501 378.851 C 194.125 378.219,192.730 377.590,192.400 377.453 C 192.070 377.317,191.530 377.050,191.200 376.859 C 190.870 376.669,189.970 376.188,189.200 375.790 C 187.612 374.969,182.304 371.595,182.000 371.214 C 181.890 371.076,180.720 370.137,179.400 369.127 C 163.352 356.853,156.350 335.594,161.900 316.000 C 162.661 313.316,163.571 310.475,164.015 309.400 C 165.320 306.243,165.852 305.074,167.110 302.600 C 169.819 297.271,171.641 294.399,176.000 288.583 C 180.429 282.675,180.800 281.588,180.800 274.532 C 180.800 261.070,188.516 252.993,202.800 251.504 C 205.848 251.187,280.352 251.661,281.360 252.005 M237.000 268.821 C 234.719 270.530,233.996 272.326,234.056 276.127 C 234.114 279.700,233.944 279.981,231.548 280.284 C 226.020 280.983,218.560 286.496,215.312 292.281 C 212.709 296.919,212.463 306.090,214.838 310.000 C 215.038 310.330,215.386 311.028,215.610 311.551 C 217.743 316.515,227.644 321.206,240.243 323.222 C 251.461 325.016,255.008 327.416,254.993 333.200 C 254.963 344.475,233.858 347.313,224.205 337.341 C 220.954 333.982,217.158 334.257,214.410 338.050 C 211.189 342.496,214.054 347.876,221.400 351.177 C 222.500 351.672,223.910 352.329,224.532 352.638 C 225.155 352.947,226.055 353.206,226.532 353.214 C 227.010 353.222,227.850 353.486,228.400 353.800 C 228.950 354.114,230.242 354.378,231.271 354.386 C 234.070 354.407,234.400 354.938,234.400 359.415 C 234.400 365.305,235.856 367.280,240.245 367.343 C 244.553 367.405,246.400 364.880,246.400 358.928 C 246.400 355.942,246.540 354.738,246.900 354.644 C 254.556 352.648,258.164 350.647,262.825 345.814 C 264.955 343.605,267.594 339.315,267.606 338.042 C 267.609 337.689,267.871 336.680,268.188 335.800 C 269.221 332.933,268.680 326.956,267.156 324.400 C 266.959 324.070,266.639 323.437,266.445 322.994 C 265.294 320.370,259.421 315.533,255.200 313.734 C 252.171 312.443,244.996 310.400,243.491 310.400 C 242.920 310.400,241.945 310.203,241.326 309.963 C 240.707 309.723,239.196 309.381,237.968 309.203 C 227.791 307.729,223.602 301.633,228.545 295.490 C 233.127 289.796,247.247 289.965,251.689 295.767 C 255.212 300.367,258.127 301.377,261.338 299.109 C 268.210 294.255,263.125 283.586,252.905 281.414 C 252.192 281.262,251.506 280.972,251.381 280.769 C 251.255 280.566,250.708 280.400,250.164 280.400 C 249.619 280.400,248.550 280.139,247.787 279.820 L 246.400 279.241 246.400 276.069 C 246.400 271.506,245.543 269.779,242.520 268.248 C 240.581 267.266,238.833 267.448,237.000 268.821 " stroke="none" fill="#f3f7f3" fill-rule="evenodd"></path><path id="path2" d="M0.000 242.400 L 0.000 484.800 200.000 484.800 L 400.000 484.800 400.000 242.400 L 400.000 0.000 200.000 0.000 L 0.000 0.000 0.000 242.400 M254.600 141.801 C 256.140 142.131,258.252 142.400,259.294 142.400 C 260.336 142.400,261.956 142.571,262.894 142.780 C 263.832 142.989,265.680 143.334,267.000 143.547 C 268.320 143.760,270.660 144.228,272.200 144.588 C 273.740 144.947,275.811 145.374,276.802 145.537 C 277.793 145.699,278.827 145.969,279.099 146.138 C 279.594 146.444,282.557 147.339,285.200 147.981 C 285.970 148.168,287.230 148.545,288.000 148.817 C 292.180 150.298,295.105 151.408,297.060 152.254 C 297.754 152.554,298.416 152.800,298.533 152.800 C 298.649 152.800,299.882 153.317,301.272 153.948 C 302.662 154.580,304.565 155.425,305.500 155.825 C 306.435 156.226,307.200 156.699,307.200 156.877 C 307.200 157.055,307.515 157.208,307.900 157.217 C 308.285 157.227,309.320 157.667,310.200 158.195 C 311.080 158.723,312.700 159.611,313.800 160.168 C 316.058 161.310,315.660 161.063,322.393 165.500 C 327.689 168.990,330.706 171.078,331.636 171.897 C 331.946 172.170,333.280 173.242,334.600 174.280 C 335.920 175.317,337.090 176.264,337.200 176.383 C 337.310 176.503,338.745 177.771,340.390 179.200 C 349.948 187.511,358.753 197.667,366.334 209.128 C 367.690 211.179,368.800 212.946,368.800 213.055 C 368.800 213.164,369.250 213.843,369.800 214.564 C 370.350 215.286,370.800 216.042,370.800 216.245 C 370.800 216.448,371.252 217.280,371.805 218.093 C 372.839 219.615,378.000 229.653,378.000 230.143 C 378.000 230.293,378.563 231.628,379.250 233.108 C 380.735 236.305,380.810 236.487,382.314 240.600 C 384.468 246.489,385.313 249.109,385.993 252.000 C 386.174 252.770,386.508 253.940,386.737 254.600 C 387.542 256.924,388.400 260.803,388.400 262.114 C 388.400 262.843,388.559 263.611,388.753 263.820 C 390.536 265.739,392.435 291.775,391.666 303.757 C 390.878 316.040,390.591 318.487,389.179 325.000 C 388.940 326.100,388.592 327.900,388.406 329.000 C 387.828 332.400,386.763 336.581,386.372 336.980 C 386.167 337.189,385.999 337.819,385.997 338.380 C 385.994 339.621,382.770 349.600,381.727 351.600 C 381.440 352.150,381.204 352.827,381.202 353.105 C 381.201 353.383,381.032 353.923,380.827 354.305 C 380.622 354.687,379.783 356.620,378.963 358.600 C 378.144 360.580,377.331 362.470,377.158 362.800 C 376.984 363.130,375.958 365.200,374.878 367.400 C 373.797 369.600,372.341 372.390,371.642 373.600 C 370.943 374.810,370.169 376.205,369.922 376.700 C 369.674 377.195,369.320 377.600,369.136 377.600 C 368.951 377.600,368.800 377.814,368.800 378.076 C 368.800 378.504,364.898 384.416,361.200 389.590 C 356.125 396.692,342.731 410.859,336.800 415.400 C 335.370 416.495,333.798 417.737,333.307 418.162 C 331.909 419.368,326.000 423.573,323.153 425.388 C 322.797 425.614,322.032 426.115,321.453 426.500 C 317.589 429.069,313.245 431.498,307.579 434.257 C 299.324 438.277,297.252 439.200,296.475 439.200 C 296.067 439.200,295.617 439.316,295.476 439.457 C 295.093 439.840,290.680 441.596,290.095 441.598 C 289.817 441.599,289.277 441.754,288.895 441.942 C 288.099 442.334,283.769 443.704,281.400 444.314 C 280.520 444.541,278.810 445.001,277.600 445.338 C 274.865 446.098,271.337 446.807,268.200 447.226 C 266.880 447.403,264.900 447.730,263.800 447.953 C 252.529 450.241,227.503 450.250,216.600 447.971 C 215.500 447.741,213.430 447.392,212.000 447.196 C 207.929 446.638,200.818 445.019,199.505 444.353 C 199.123 444.159,198.493 444.000,198.105 444.000 C 197.383 444.000,192.753 442.556,191.505 441.942 C 191.123 441.754,190.545 441.600,190.219 441.600 C 189.626 441.600,187.592 440.813,185.468 439.761 C 184.845 439.452,184.111 439.200,183.837 439.200 C 182.217 439.200,163.424 430.065,161.200 428.197 C 160.870 427.920,159.835 427.309,158.900 426.838 C 157.965 426.368,157.200 425.807,157.200 425.592 C 157.200 425.376,156.953 425.200,156.651 425.200 C 154.662 425.200,140.703 413.882,131.983 405.200 C 123.742 396.995,120.893 393.619,115.010 385.086 C 113.916 383.499,112.926 382.110,112.810 382.000 C 112.695 381.890,112.383 381.440,112.117 381.000 C 107.041 372.589,107.411 373.253,104.093 366.600 C 100.667 359.731,96.772 350.517,95.976 347.400 C 95.807 346.740,95.286 345.210,94.817 344.000 C 94.349 342.790,93.810 341.080,93.618 340.200 C 93.427 339.320,92.828 336.980,92.286 335.000 C 91.745 333.020,91.091 330.320,90.834 329.000 C 90.577 327.680,90.097 325.340,89.767 323.800 C 87.261 312.099,87.191 277.632,89.656 268.619 C 89.899 267.728,90.249 266.010,90.433 264.800 C 91.149 260.096,91.537 258.025,91.942 256.738 C 93.131 252.967,93.601 251.163,93.614 250.325 C 93.622 249.816,93.886 248.950,94.200 248.400 C 94.514 247.850,94.778 247.067,94.786 246.660 C 94.794 246.254,95.043 245.354,95.339 244.660 C 95.636 243.967,96.199 242.410,96.590 241.200 C 96.982 239.990,97.549 238.601,97.851 238.114 C 98.153 237.627,98.398 236.997,98.396 236.714 C 98.392 235.991,102.024 227.534,102.668 226.769 C 102.961 226.421,103.200 225.931,103.200 225.679 C 103.200 225.028,108.557 214.988,109.448 213.969 C 109.752 213.621,110.000 213.232,110.000 213.103 C 110.000 212.862,113.044 208.286,115.778 204.419 C 117.501 201.981,117.525 201.950,119.111 200.000 C 119.738 199.230,121.071 197.520,122.074 196.200 C 126.655 190.170,139.084 177.870,145.735 172.785 C 150.588 169.074,160.837 162.000,161.359 162.000 C 161.469 162.000,162.334 161.505,163.280 160.900 C 164.226 160.295,165.360 159.573,165.800 159.295 C 166.240 159.017,167.410 158.432,168.400 157.995 C 169.390 157.558,170.470 157.052,170.800 156.871 C 172.984 155.671,174.118 155.108,176.600 153.991 C 180.283 152.333,181.441 151.839,183.600 151.007 C 184.590 150.625,185.842 150.139,186.383 149.927 C 187.707 149.408,191.268 148.258,194.200 147.403 C 195.520 147.018,197.191 146.455,197.914 146.151 C 198.636 145.848,199.613 145.600,200.085 145.600 C 200.557 145.600,201.496 145.429,202.172 145.219 C 203.317 144.864,208.186 143.798,213.131 142.821 C 214.302 142.589,216.192 142.396,217.331 142.390 C 218.469 142.385,220.210 142.188,221.200 141.952 C 226.418 140.709,249.018 140.607,254.600 141.801 " stroke="none" fill="#040404" fill-rule="evenodd"></path><path id="path3" d="M226.800 141.194 C 224.710 141.381,222.280 141.720,221.400 141.949 C 219.851 142.352,219.871 142.359,222.000 142.165 C 227.768 141.641,247.963 141.537,251.633 142.014 C 256.111 142.595,257.788 142.342,254.000 141.656 C 250.724 141.063,231.859 140.742,226.800 141.194 M212.800 142.862 C 207.498 143.942,203.262 144.881,202.172 145.219 C 201.496 145.429,200.557 145.600,200.085 145.600 C 199.613 145.600,198.636 145.848,197.914 146.151 C 197.191 146.455,195.520 147.018,194.200 147.403 C 191.268 148.258,187.707 149.408,186.383 149.927 C 185.842 150.139,184.590 150.625,183.600 151.007 C 181.441 151.839,180.283 152.333,176.600 153.991 C 174.118 155.108,172.984 155.671,170.800 156.871 C 170.470 157.052,169.390 157.558,168.400 157.995 C 167.410 158.432,166.240 159.017,165.800 159.295 C 165.360 159.573,164.226 160.295,163.280 160.900 C 162.334 161.505,161.469 162.000,161.359 162.000 C 160.837 162.000,150.588 169.074,145.735 172.785 C 139.084 177.870,126.655 190.170,122.074 196.200 C 121.071 197.520,119.738 199.230,119.111 200.000 C 117.525 201.950,117.501 201.981,115.778 204.419 C 113.044 208.286,110.000 212.862,110.000 213.103 C 110.000 213.232,109.752 213.621,109.448 213.969 C 108.929 214.562,108.250 215.772,104.630 222.544 C 103.823 224.054,103.224 225.473,103.300 225.699 C 103.375 225.925,104.013 224.960,104.717 223.555 C 118.631 195.801,143.427 171.041,171.238 157.132 C 174.682 155.409,177.600 154.000,177.722 154.000 C 177.844 154.000,179.082 153.483,180.472 152.852 C 183.758 151.360,188.461 149.666,194.200 147.908 C 200.708 145.914,202.585 145.470,214.000 143.221 C 216.486 142.731,217.247 142.477,216.200 142.484 C 215.320 142.491,213.790 142.661,212.800 142.862 M263.000 143.402 C 265.860 143.910,268.920 144.443,269.800 144.589 C 271.847 144.927,276.006 145.876,278.700 146.620 C 283.192 147.861,285.455 148.526,286.800 149.001 C 287.570 149.273,288.920 149.720,289.800 149.996 C 320.404 159.573,349.784 183.473,369.348 214.704 C 372.089 219.080,376.764 228.365,379.466 234.800 C 380.464 237.176,380.926 238.007,381.135 237.799 C 381.245 237.689,381.147 237.194,380.918 236.699 C 380.688 236.205,379.938 234.589,379.250 233.108 C 378.563 231.628,378.000 230.293,378.000 230.143 C 378.000 229.653,372.839 219.615,371.805 218.093 C 371.252 217.280,370.800 216.448,370.800 216.245 C 370.800 216.042,370.350 215.286,369.800 214.564 C 369.250 213.843,368.800 213.164,368.800 213.055 C 368.800 212.946,367.690 211.179,366.334 209.128 C 358.753 197.667,349.948 187.511,340.390 179.200 C 338.745 177.771,337.310 176.503,337.200 176.383 C 337.090 176.264,335.920 175.317,334.600 174.280 C 333.280 173.242,331.946 172.170,331.636 171.897 C 330.706 171.078,327.689 168.990,322.393 165.500 C 315.660 161.063,316.058 161.310,313.800 160.168 C 312.700 159.611,311.080 158.723,310.200 158.195 C 309.320 157.667,308.285 157.227,307.900 157.217 C 307.515 157.208,307.200 157.055,307.200 156.877 C 307.200 156.699,306.435 156.226,305.500 155.825 C 304.565 155.425,302.662 154.580,301.272 153.948 C 299.882 153.317,298.649 152.800,298.533 152.800 C 298.416 152.800,297.754 152.554,297.060 152.254 C 295.105 151.408,292.180 150.298,288.000 148.817 C 287.230 148.545,285.970 148.168,285.200 147.981 C 282.557 147.339,279.594 146.444,279.099 146.138 C 278.827 145.969,277.793 145.699,276.802 145.537 C 275.811 145.374,273.740 144.947,272.200 144.588 C 270.660 144.228,268.320 143.760,267.000 143.547 C 265.680 143.334,263.832 142.989,262.894 142.780 C 261.956 142.571,260.426 142.418,259.494 142.440 C 258.375 142.467,259.565 142.793,263.000 143.402 M102.526 226.890 C 101.954 227.643,98.392 236.115,98.396 236.714 C 98.398 236.997,98.153 237.627,97.851 238.114 C 97.549 238.601,96.982 239.990,96.590 241.200 C 96.199 242.410,95.636 243.967,95.339 244.660 C 95.043 245.354,94.800 246.221,94.800 246.587 C 94.800 246.953,94.587 247.646,94.326 248.126 C 94.066 248.607,93.717 249.720,93.552 250.600 C 93.386 251.480,92.952 253.280,92.587 254.600 C 92.221 255.920,91.746 257.900,91.531 259.000 C 91.315 260.100,90.973 261.553,90.769 262.228 C 90.566 262.904,90.421 264.074,90.446 264.828 L 90.492 266.200 90.842 264.600 C 91.034 263.720,91.382 261.938,91.614 260.639 C 91.847 259.341,92.209 257.957,92.419 257.565 C 92.628 257.173,92.800 256.423,92.800 255.898 C 92.800 255.372,93.045 254.145,93.343 253.171 C 93.642 252.197,94.181 250.410,94.540 249.200 C 95.532 245.857,96.675 242.440,97.618 240.000 C 98.085 238.790,98.568 237.440,98.692 237.000 C 98.815 236.560,99.039 236.020,99.189 235.800 C 99.339 235.580,99.790 234.500,100.190 233.400 C 100.590 232.300,101.443 230.347,102.085 229.060 C 103.176 226.873,103.408 225.731,102.526 226.890 M381.216 239.020 C 381.207 239.471,381.357 240.011,381.549 240.220 C 382.158 240.883,385.818 252.488,387.220 258.200 C 387.490 259.300,387.847 261.010,388.013 262.000 C 388.179 262.990,388.508 264.790,388.744 266.000 C 391.956 282.458,392.354 303.455,389.749 319.000 C 388.723 325.119,387.975 328.915,387.375 331.035 C 387.059 332.154,386.800 333.390,386.800 333.781 C 386.800 334.173,386.537 335.327,386.215 336.346 C 385.893 337.366,384.781 340.900,383.744 344.200 C 382.707 347.500,381.725 350.470,381.562 350.800 C 381.398 351.130,380.866 352.529,380.380 353.908 C 379.894 355.288,379.339 356.514,379.148 356.632 C 378.957 356.750,378.800 357.106,378.800 357.423 C 378.800 359.513,369.178 377.538,364.719 383.800 C 356.658 395.123,352.427 400.045,342.336 409.837 C 340.501 411.618,337.982 413.868,336.738 414.837 C 335.494 415.807,333.424 417.428,332.138 418.440 C 330.207 419.960,321.981 425.618,318.983 427.489 C 315.919 429.400,310.615 432.261,306.200 434.383 C 300.333 437.203,300.548 437.108,296.200 438.811 C 290.767 440.939,290.249 441.133,288.600 441.654 C 287.500 442.001,287.232 442.209,287.742 442.317 C 288.151 442.404,288.682 442.278,288.922 442.038 C 289.163 441.797,289.639 441.599,289.980 441.598 C 290.649 441.596,295.052 439.881,295.476 439.457 C 295.617 439.316,296.067 439.200,296.475 439.200 C 297.252 439.200,299.324 438.277,307.579 434.257 C 313.223 431.508,317.537 429.100,321.353 426.566 C 321.987 426.144,322.797 425.614,323.153 425.388 C 326.000 423.573,331.909 419.368,333.307 418.162 C 333.798 417.737,335.370 416.495,336.800 415.400 C 342.731 410.859,356.125 396.692,361.200 389.590 C 364.898 384.416,368.800 378.504,368.800 378.076 C 368.800 377.814,368.951 377.600,369.136 377.600 C 369.320 377.600,369.674 377.195,369.922 376.700 C 370.169 376.205,370.943 374.810,371.642 373.600 C 372.341 372.390,373.797 369.600,374.878 367.400 C 375.958 365.200,376.984 363.130,377.158 362.800 C 377.331 362.470,378.144 360.580,378.963 358.600 C 379.783 356.620,380.622 354.687,380.827 354.305 C 381.032 353.923,381.201 353.383,381.202 353.105 C 381.204 352.827,381.440 352.150,381.727 351.600 C 382.770 349.600,385.994 339.621,385.997 338.380 C 385.999 337.819,386.167 337.189,386.372 336.980 C 386.763 336.581,387.828 332.400,388.406 329.000 C 388.592 327.900,388.940 326.100,389.179 325.000 C 390.591 318.487,390.878 316.040,391.666 303.757 C 392.433 291.806,390.734 268.056,388.808 263.800 C 388.608 263.360,388.368 262.280,388.273 261.400 C 388.082 259.625,387.086 255.257,386.450 253.400 C 386.224 252.740,385.747 251.120,385.391 249.800 C 385.035 248.480,384.509 246.770,384.223 246.000 C 383.937 245.230,383.384 243.610,382.993 242.400 C 382.016 239.375,381.238 237.896,381.216 239.020 M89.685 268.400 C 88.900 271.886,88.341 277.735,88.212 283.800 L 88.093 289.400 88.392 284.600 C 88.765 278.631,89.454 272.434,90.042 269.780 C 90.288 268.669,90.420 267.409,90.335 266.980 C 90.247 266.533,89.969 267.139,89.685 268.400 M87.755 296.600 C 87.756 299.460,87.820 300.578,87.897 299.083 C 87.974 297.589,87.974 295.249,87.896 293.883 C 87.818 292.518,87.755 293.740,87.755 296.600 M88.216 309.800 C 88.360 314.871,89.247 322.187,89.962 324.200 C 90.469 325.629,90.430 325.189,89.370 317.600 C 89.016 315.070,88.582 311.200,88.404 309.000 L 88.080 305.000 88.216 309.800 M90.432 326.494 C 90.398 327.667,90.761 329.325,92.297 335.000 C 92.833 336.980,93.427 339.320,93.618 340.200 C 93.810 341.080,94.349 342.790,94.817 344.000 C 95.286 345.210,95.807 346.740,95.976 347.400 C 96.772 350.517,100.667 359.731,104.093 366.600 C 107.411 373.253,107.041 372.589,112.117 381.000 C 112.383 381.440,112.695 381.890,112.810 382.000 C 112.926 382.110,113.916 383.499,115.010 385.086 C 120.893 393.619,123.742 396.995,131.983 405.200 C 140.402 413.582,154.654 425.200,156.517 425.200 C 157.034 425.200,157.408 425.497,152.200 421.776 C 142.360 414.746,128.595 402.026,122.572 394.400 C 121.269 392.750,120.104 391.310,119.982 391.200 C 119.861 391.090,119.329 390.370,118.800 389.600 C 118.271 388.830,117.721 388.110,117.577 388.000 C 113.567 384.932,100.201 358.925,96.198 346.400 C 95.600 344.530,94.880 342.370,94.597 341.600 C 94.315 340.830,93.779 339.030,93.406 337.600 C 93.034 336.170,92.494 334.100,92.207 333.000 C 91.919 331.900,91.465 329.920,91.197 328.600 C 90.554 325.433,90.469 325.198,90.432 326.494 M157.200 425.600 C 157.200 425.811,157.965 426.368,158.900 426.838 C 159.835 427.309,160.870 427.920,161.200 428.197 C 163.424 430.065,182.217 439.200,183.837 439.200 C 184.111 439.200,184.845 439.452,185.468 439.761 C 187.707 440.869,189.640 441.600,190.334 441.600 C 190.722 441.600,191.237 441.797,191.478 442.038 C 191.718 442.278,192.249 442.409,192.658 442.329 C 193.078 442.246,192.014 441.702,190.200 441.074 C 180.182 437.603,169.147 432.478,160.900 427.466 C 158.865 426.229,157.200 425.390,157.200 425.600 M195.200 443.166 C 196.190 443.600,197.407 443.965,197.905 443.978 C 198.403 443.990,199.123 444.159,199.505 444.353 C 201.112 445.169,208.748 446.813,211.800 447.001 C 214.065 447.140,214.099 447.129,212.400 446.813 C 206.449 445.704,203.243 444.953,197.800 443.392 C 194.215 442.364,193.162 442.272,195.200 443.166 M285.108 442.625 C 284.578 443.155,274.308 445.674,268.000 446.821 C 266.322 447.126,266.363 447.138,268.600 446.999 C 271.202 446.838,273.653 446.387,277.400 445.381 C 278.720 445.026,280.520 444.552,281.400 444.327 C 284.079 443.640,287.055 442.454,286.167 442.426 C 285.708 442.412,285.232 442.501,285.108 442.625 M214.910 447.599 C 215.300 447.847,217.190 448.213,219.110 448.412 C 221.029 448.611,223.860 448.956,225.400 449.179 C 229.909 449.831,251.928 449.707,256.200 449.005 C 258.180 448.680,260.520 448.410,261.400 448.405 C 263.181 448.394,266.196 447.663,265.857 447.324 C 265.737 447.204,264.505 447.301,263.119 447.540 C 249.696 449.854,229.420 449.790,215.600 447.390 C 214.463 447.192,214.333 447.232,214.910 447.599 " stroke="none" fill="#23605c" fill-rule="evenodd"></path><path id="path4" d="M224.800 142.013 C 223.967 142.196,224.695 142.234,226.600 142.106 C 228.360 141.989,229.875 141.826,229.967 141.746 C 230.261 141.488,226.248 141.695,224.800 142.013 M246.700 141.889 C 247.415 141.978,248.585 141.978,249.300 141.889 C 250.015 141.801,249.430 141.728,248.000 141.728 C 246.570 141.728,245.985 141.801,246.700 141.889 M218.500 142.687 C 219.105 142.778,220.095 142.778,220.700 142.687 C 221.305 142.595,220.810 142.520,219.600 142.520 C 218.390 142.520,217.895 142.595,218.500 142.687 M255.905 142.683 C 256.402 142.779,257.122 142.775,257.505 142.675 C 257.887 142.575,257.480 142.496,256.600 142.501 C 255.720 142.505,255.407 142.587,255.905 142.683 M214.400 143.200 C 213.608 143.454,213.567 143.520,214.200 143.520 C 214.640 143.520,215.450 143.376,216.000 143.200 C 216.792 142.946,216.833 142.880,216.200 142.880 C 215.760 142.880,214.950 143.024,214.400 143.200 M260.000 143.200 C 260.550 143.376,261.450 143.517,262.000 143.513 C 262.898 143.506,262.878 143.474,261.800 143.200 C 260.108 142.769,258.656 142.769,260.000 143.200 M263.700 143.876 C 264.085 143.976,264.715 143.976,265.100 143.876 C 265.485 143.775,265.170 143.693,264.400 143.693 C 263.630 143.693,263.315 143.775,263.700 143.876 M208.200 144.400 C 207.181 144.838,208.232 144.838,209.600 144.400 C 210.404 144.143,210.443 144.077,209.800 144.068 C 209.360 144.062,208.640 144.211,208.200 144.400 M267.400 144.400 C 267.840 144.589,268.470 144.744,268.800 144.744 C 269.178 144.744,269.104 144.617,268.600 144.400 C 268.160 144.211,267.530 144.056,267.200 144.056 C 266.822 144.056,266.896 144.183,267.400 144.400 M273.200 145.582 C 273.530 145.805,274.145 145.991,274.567 145.994 C 275.590 146.002,275.271 145.773,273.800 145.444 C 272.924 145.248,272.762 145.285,273.200 145.582 M198.600 146.586 C 197.022 147.308,197.379 147.320,199.600 146.621 C 200.590 146.309,201.040 146.050,200.600 146.045 C 200.160 146.040,199.260 146.283,198.600 146.586 M281.946 147.816 C 282.686 148.137,283.496 148.393,283.746 148.384 C 283.996 148.376,283.594 148.106,282.854 147.784 C 282.114 147.463,281.304 147.207,281.054 147.216 C 280.804 147.224,281.206 147.494,281.946 147.816 M285.800 149.012 C 287.804 149.734,288.078 149.730,286.800 149.000 C 286.250 148.686,285.440 148.430,285.000 148.432 C 284.560 148.434,284.920 148.695,285.800 149.012 M185.400 150.813 C 183.860 151.438,182.780 151.961,183.000 151.975 C 183.582 152.011,187.733 150.404,188.180 149.970 C 188.679 149.484,188.655 149.491,185.400 150.813 M288.800 149.728 C 288.800 150.020,293.262 151.671,293.474 151.459 C 293.567 151.366,292.869 151.019,291.922 150.687 C 290.975 150.356,289.885 149.956,289.500 149.800 C 289.115 149.643,288.800 149.611,288.800 149.728 M295.600 152.229 C 295.600 152.507,300.100 154.434,300.457 154.310 C 300.630 154.249,299.608 153.716,298.186 153.124 C 296.764 152.533,295.600 152.130,295.600 152.229 M179.200 153.400 C 178.650 153.714,178.380 153.972,178.600 153.972 C 178.820 153.972,179.450 153.714,180.000 153.400 C 180.550 153.086,180.820 152.828,180.600 152.828 C 180.380 152.828,179.750 153.086,179.200 153.400 M158.081 164.572 C 156.223 165.885,155.962 166.261,157.531 165.362 C 158.263 164.943,159.050 164.375,159.280 164.100 C 159.871 163.393,159.593 163.502,158.081 164.572 M319.069 164.032 C 319.566 164.633,322.000 166.164,322.000 165.876 C 322.000 165.783,321.235 165.202,320.300 164.585 C 319.365 163.968,318.811 163.720,319.069 164.032 M152.900 168.040 C 151.965 168.702,151.200 169.333,151.200 169.441 C 151.200 169.550,152.010 169.081,153.000 168.400 C 153.990 167.719,154.800 167.080,154.800 166.981 C 154.800 166.705,154.724 166.748,152.900 168.040 M324.000 167.274 C 324.902 168.165,330.167 171.794,329.877 171.325 C 329.739 171.101,328.225 169.964,326.513 168.799 C 324.801 167.634,323.670 166.948,324.000 167.274 M145.421 173.630 C 142.121 176.360,141.728 176.886,144.618 174.704 C 146.694 173.138,148.437 171.529,147.949 171.631 C 147.867 171.648,146.729 172.548,145.421 173.630 M339.000 178.847 C 340.760 180.461,343.921 183.406,346.024 185.391 L 349.848 189.000 345.824 185.000 C 343.611 182.800,340.450 179.855,338.800 178.455 L 335.800 175.911 339.000 178.847 M132.207 185.593 C 131.352 186.469,130.730 187.245,130.826 187.318 C 130.922 187.391,131.698 186.674,132.552 185.725 C 134.501 183.559,134.277 183.473,132.207 185.593 M126.800 191.400 C 125.828 192.390,125.123 193.200,125.233 193.200 C 125.343 193.200,126.228 192.390,127.200 191.400 C 128.172 190.410,128.877 189.600,128.767 189.600 C 128.657 189.600,127.772 190.410,126.800 191.400 M123.962 194.700 C 122.017 196.868,119.426 200.155,119.889 199.869 C 120.148 199.708,121.451 198.232,122.783 196.589 C 125.218 193.586,125.802 192.651,123.962 194.700 M258.600 196.400 C 258.447 196.648,259.196 196.800,260.576 196.800 C 261.799 196.800,262.800 196.620,262.800 196.400 C 262.800 196.180,261.911 196.000,260.824 196.000 C 259.737 196.000,258.736 196.180,258.600 196.400 M217.505 197.083 C 218.002 197.179,218.722 197.175,219.105 197.075 C 219.487 196.975,219.080 196.896,218.200 196.901 C 217.320 196.905,217.007 196.987,217.505 197.083 M255.300 197.076 C 255.685 197.176,256.315 197.176,256.700 197.076 C 257.085 196.975,256.770 196.893,256.000 196.893 C 255.230 196.893,254.915 196.975,255.300 197.076 M357.600 198.400 C 358.297 199.280,358.957 200.000,359.067 200.000 C 359.177 200.000,358.697 199.280,358.000 198.400 C 357.303 197.520,356.643 196.800,356.533 196.800 C 356.423 196.800,356.903 197.520,357.600 198.400 M252.000 198.400 C 251.515 198.714,251.572 198.789,252.300 198.794 C 252.795 198.797,253.200 198.620,253.200 198.400 C 253.200 197.899,252.776 197.899,252.000 198.400 M268.000 198.400 C 268.000 198.620,268.405 198.797,268.900 198.794 C 269.628 198.789,269.685 198.714,269.200 198.400 C 268.424 197.899,268.000 197.899,268.000 198.400 M118.175 201.868 C 117.559 202.676,117.259 203.211,117.509 203.056 C 118.021 202.740,119.753 200.400,119.475 200.400 C 119.376 200.400,118.791 201.061,118.175 201.868 M272.000 200.662 C 272.000 201.370,273.068 202.537,273.330 202.114 C 273.468 201.890,273.225 201.385,272.791 200.991 C 272.356 200.598,272.000 200.450,272.000 200.662 M360.175 201.732 C 360.791 202.539,361.376 203.200,361.475 203.200 C 361.753 203.200,360.021 200.860,359.509 200.544 C 359.259 200.389,359.559 200.924,360.175 201.732 M233.200 201.400 C 233.474 201.730,233.878 202.000,234.098 202.000 C 234.321 202.000,234.278 201.735,234.000 201.400 C 233.726 201.070,233.322 200.800,233.102 200.800 C 232.879 200.800,232.922 201.065,233.200 201.400 M235.600 204.376 C 235.600 204.829,235.780 205.200,236.000 205.200 C 236.220 205.200,236.400 204.941,236.400 204.624 C 236.400 204.307,236.220 203.936,236.000 203.800 C 235.780 203.664,235.600 203.923,235.600 204.376 M362.400 204.800 C 362.870 205.460,363.344 206.000,363.454 206.000 C 363.564 206.000,363.270 205.460,362.800 204.800 C 362.330 204.140,361.856 203.600,361.746 203.600 C 361.636 203.600,361.930 204.140,362.400 204.800 M274.806 204.500 C 274.820 205.642,275.588 206.226,275.594 205.100 C 275.597 204.495,275.420 204.000,275.200 204.000 C 274.980 204.000,274.803 204.225,274.806 204.500 M364.400 207.600 C 364.870 208.260,365.344 208.800,365.454 208.800 C 365.564 208.800,365.270 208.260,364.800 207.600 C 364.330 206.940,363.856 206.400,363.746 206.400 C 363.636 206.400,363.930 206.940,364.400 207.600 M238.034 214.000 C 238.048 217.384,238.185 219.101,238.400 218.600 C 238.876 217.493,238.876 209.936,238.400 209.200 C 238.140 208.797,238.019 210.375,238.034 214.000 M243.720 211.600 C 243.720 212.810,243.795 213.305,243.887 212.700 C 243.978 212.095,243.978 211.105,243.887 210.500 C 243.795 209.895,243.720 210.390,243.720 211.600 M366.840 211.377 C 367.302 212.161,367.843 212.903,368.041 213.025 C 368.239 213.148,368.023 212.607,367.560 211.823 C 367.098 211.039,366.557 210.297,366.359 210.175 C 366.161 210.052,366.377 210.593,366.840 211.377 M277.200 213.824 C 277.200 216.004,277.345 217.157,277.600 217.000 C 277.820 216.864,278.000 215.323,278.000 213.576 C 278.000 211.725,277.833 210.400,277.600 210.400 C 277.364 210.400,277.200 211.808,277.200 213.824 M111.200 212.000 C 110.730 212.660,110.436 213.200,110.546 213.200 C 110.656 213.200,111.130 212.660,111.600 212.000 C 112.070 211.340,112.364 210.800,112.254 210.800 C 112.144 210.800,111.670 211.340,111.200 212.000 M109.095 215.419 C 108.504 216.399,108.103 217.200,108.205 217.200 C 108.477 217.200,110.483 213.949,110.315 213.781 C 110.236 213.702,109.687 214.439,109.095 215.419 M369.200 214.941 C 369.200 215.324,371.165 218.400,371.410 218.400 C 371.520 218.400,371.134 217.635,370.551 216.700 C 369.326 214.734,369.200 214.569,369.200 214.941 M245.600 220.153 C 245.600 220.703,245.780 221.264,246.000 221.400 C 246.226 221.540,246.400 221.212,246.400 220.647 C 246.400 220.097,246.220 219.536,246.000 219.400 C 245.774 219.260,245.600 219.588,245.600 220.153 M275.060 221.387 C 274.936 221.710,274.987 222.068,275.172 222.183 C 275.357 222.297,275.603 222.033,275.717 221.596 C 275.956 220.681,275.399 220.504,275.060 221.387 M235.900 223.031 C 235.735 223.197,235.600 223.699,235.600 224.147 C 235.600 224.735,235.721 224.839,236.038 224.522 C 236.278 224.282,236.413 223.780,236.338 223.407 C 236.262 223.033,236.065 222.864,235.900 223.031 M250.323 229.812 C 250.232 230.589,250.245 231.312,250.352 231.419 C 250.649 231.716,251.628 229.168,251.374 228.759 C 250.915 228.015,250.482 228.448,250.323 229.812 M102.000 228.884 C 102.000 229.003,101.552 230.113,101.005 231.350 C 100.458 232.588,100.100 233.600,100.210 233.600 C 100.531 233.600,102.431 229.098,102.205 228.872 C 102.092 228.759,102.000 228.764,102.000 228.884 M214.446 232.327 C 214.421 232.616,213.929 233.471,213.353 234.227 C 212.333 235.563,212.328 235.600,213.153 235.600 C 213.782 235.600,214.000 235.351,214.000 234.633 C 214.000 234.102,214.201 233.600,214.446 233.518 C 214.691 233.436,214.802 233.016,214.692 232.585 C 214.582 232.153,214.472 232.037,214.446 232.327 M248.480 233.680 C 248.216 233.944,248.000 234.394,248.000 234.680 C 248.000 235.764,229.810 235.396,229.322 234.303 C 228.927 233.418,228.912 233.424,228.260 234.685 L 227.598 235.964 237.676 235.882 L 247.755 235.800 248.514 234.500 C 249.307 233.144,249.295 232.865,248.480 233.680 M260.229 235.029 C 259.883 235.374,259.600 235.734,259.600 235.829 C 259.600 235.923,265.315 235.997,272.300 235.994 C 280.647 235.990,284.794 235.855,284.400 235.600 C 284.051 235.374,279.246 235.210,272.900 235.206 C 265.904 235.202,262.000 235.057,262.000 234.800 C 262.000 234.187,260.932 234.325,260.229 235.029 M198.400 235.600 C 197.984 235.869,198.742 235.990,200.876 235.994 C 202.568 235.997,204.064 235.820,204.200 235.600 C 204.524 235.075,199.212 235.075,198.400 235.600 M380.013 236.854 C 380.006 236.994,380.269 237.624,380.598 238.254 C 380.926 238.884,381.196 239.119,381.198 238.776 C 381.200 238.190,380.040 236.308,380.013 236.854 M190.200 238.000 C 190.060 238.226,190.388 238.400,190.953 238.400 C 191.503 238.400,192.064 238.220,192.200 238.000 C 192.340 237.774,192.012 237.600,191.447 237.600 C 190.897 237.600,190.336 237.780,190.200 238.000 M290.400 238.000 C 291.190 238.511,292.516 238.511,292.200 238.000 C 292.064 237.780,291.468 237.603,290.876 237.606 C 290.034 237.611,289.931 237.697,290.400 238.000 M96.865 241.817 C 96.609 242.378,96.407 243.054,96.416 243.319 C 96.424 243.583,96.697 243.188,97.022 242.439 C 97.705 240.865,97.561 240.290,96.865 241.817 M382.030 242.000 C 382.028 242.576,383.157 244.866,383.186 244.346 C 383.194 244.206,382.937 243.486,382.616 242.746 C 382.294 242.006,382.031 241.670,382.030 242.000 M94.446 249.239 C 94.201 249.943,94.012 250.808,94.027 251.160 C 94.041 251.512,94.304 250.997,94.609 250.016 C 95.249 247.962,95.115 247.322,94.446 249.239 M306.400 248.108 C 306.400 248.626,307.716 250.800,308.029 250.800 C 308.621 250.800,308.469 250.398,307.400 249.127 C 306.850 248.473,306.400 248.015,306.400 248.108 M384.430 249.600 C 384.428 250.176,385.557 252.466,385.586 251.946 C 385.594 251.806,385.337 251.086,385.016 250.346 C 384.694 249.606,384.431 249.270,384.430 249.600 M197.400 253.200 C 197.100 253.685,200.299 253.699,202.600 253.223 C 203.977 252.938,203.743 252.886,200.924 252.846 C 199.118 252.821,197.536 252.980,197.400 253.200 M233.529 253.100 C 241.080 253.161,253.320 253.161,260.729 253.100 C 268.138 253.039,261.960 252.989,247.000 252.989 C 232.040 252.989,225.978 253.039,233.529 253.100 M278.200 253.218 C 281.098 253.670,283.600 253.661,283.600 253.200 C 283.600 252.958,282.136 252.821,279.900 252.853 C 276.584 252.901,276.408 252.939,278.200 253.218 M385.622 253.400 C 385.616 253.620,385.871 254.520,386.188 255.400 C 386.505 256.280,386.773 256.706,386.782 256.346 C 386.792 255.986,386.537 255.086,386.216 254.346 C 385.894 253.606,385.627 253.180,385.622 253.400 M191.600 255.600 C 191.600 256.106,192.417 256.106,193.200 255.600 C 193.668 255.298,193.557 255.211,192.700 255.206 C 192.095 255.203,191.600 255.380,191.600 255.600 M287.739 255.654 C 288.268 255.961,288.602 255.958,288.919 255.641 C 289.240 255.320,289.041 255.203,288.180 255.212 C 287.146 255.223,287.091 255.277,287.739 255.654 M312.006 257.500 C 312.003 258.215,312.180 258.800,312.400 258.800 C 312.908 258.800,312.908 257.586,312.400 256.800 C 312.106 256.345,312.011 256.514,312.006 257.500 M291.600 258.000 C 292.376 258.501,292.800 258.501,292.800 258.000 C 292.800 257.780,292.395 257.603,291.900 257.606 C 291.172 257.611,291.115 257.686,291.600 258.000 M386.837 258.200 C 386.823 258.420,387.067 259.410,387.379 260.400 C 387.691 261.390,387.945 261.840,387.943 261.400 C 387.939 260.566,386.879 257.500,386.837 258.200 M294.000 260.151 C 294.000 260.234,294.270 260.526,294.600 260.800 C 295.091 261.208,295.200 261.180,295.200 260.649 C 295.200 260.292,294.930 260.000,294.600 260.000 C 294.270 260.000,294.000 260.068,294.000 260.151 M183.892 263.442 C 183.731 263.602,183.605 264.108,183.612 264.567 C 183.623 265.336,183.656 265.345,184.040 264.685 C 184.488 263.916,184.373 262.960,183.892 263.442 M314.434 266.400 C 314.449 268.667,314.571 269.533,314.800 269.000 C 315.273 267.899,315.273 264.332,314.800 263.600 C 314.534 263.188,314.419 264.066,314.434 266.400 M90.493 267.200 C 90.493 267.970,90.575 268.285,90.676 267.900 C 90.776 267.515,90.776 266.885,90.676 266.500 C 90.575 266.115,90.493 266.430,90.493 267.200 M89.856 270.084 C 89.721 270.588,89.627 271.360,89.646 271.800 C 89.665 272.240,89.845 271.898,90.046 271.040 C 90.436 269.378,90.270 268.540,89.856 270.084 M181.358 271.425 C 181.216 271.989,181.291 272.844,181.523 273.325 C 181.886 274.075,181.950 273.929,181.973 272.300 C 182.003 270.203,181.754 269.848,181.358 271.425 M233.143 271.500 C 233.111 271.885,233.130 273.414,233.184 274.897 C 233.263 277.063,233.156 277.642,232.641 277.840 C 231.740 278.185,231.842 278.800,232.800 278.800 C 233.547 278.800,233.600 278.533,233.600 274.800 C 233.600 271.362,233.320 269.338,233.143 271.500 M247.574 275.000 C 247.466 276.760,247.515 278.368,247.682 278.573 C 248.192 279.198,248.236 278.735,247.999 275.200 L 247.771 271.800 247.574 275.000 M389.885 274.400 C 390.007 275.830,390.172 277.075,390.253 277.167 C 390.520 277.470,390.311 274.222,389.985 273.000 C 389.782 272.244,389.746 272.762,389.885 274.400 M314.447 276.500 C 314.419 278.598,314.560 280.000,314.800 280.000 C 315.259 280.000,315.259 276.005,314.800 274.200 C 314.585 273.354,314.481 274.033,314.447 276.500 M89.314 275.800 C 89.317 276.900,89.395 277.303,89.487 276.695 C 89.579 276.086,89.577 275.186,89.482 274.695 C 89.387 274.203,89.311 274.700,89.314 275.800 M88.613 280.613 C 88.457 282.071,88.420 283.353,88.530 283.463 C 88.640 283.573,88.857 282.471,89.013 281.013 C 89.169 279.556,89.207 278.274,89.097 278.164 C 88.987 278.054,88.769 279.156,88.613 280.613 M181.500 279.733 C 181.024 280.894,181.118 282.642,181.629 282.131 C 181.865 281.895,182.000 281.094,181.929 280.351 C 181.829 279.304,181.732 279.165,181.500 279.733 M250.000 279.600 C 250.000 279.820,250.675 279.997,251.500 279.994 C 252.616 279.989,252.846 279.888,252.400 279.600 C 251.612 279.091,250.000 279.091,250.000 279.600 M390.480 280.200 C 390.468 280.860,390.603 282.210,390.780 283.200 C 391.016 284.528,391.105 284.685,391.120 283.800 C 391.132 283.140,390.997 281.790,390.820 280.800 C 390.584 279.472,390.495 279.315,390.480 280.200 M253.700 280.676 C 254.085 280.776,254.715 280.776,255.100 280.676 C 255.485 280.575,255.170 280.493,254.400 280.493 C 253.630 280.493,253.315 280.575,253.700 280.676 M256.624 281.787 C 257.051 282.110,257.625 282.380,257.900 282.387 C 258.175 282.394,258.400 282.580,258.400 282.800 C 258.400 283.020,258.805 283.199,259.300 283.198 C 260.045 283.196,259.925 283.026,258.600 282.210 C 256.826 281.118,255.309 280.793,256.624 281.787 M391.363 295.200 C 391.363 298.830,391.423 300.315,391.498 298.500 C 391.572 296.685,391.572 293.715,391.498 291.900 C 391.423 290.085,391.363 291.570,391.363 295.200 M88.169 297.200 C 88.169 301.710,88.227 303.555,88.298 301.300 C 88.370 299.045,88.370 295.355,88.298 293.100 C 88.227 290.845,88.169 292.690,88.169 297.200 M265.612 293.200 C 265.612 295.025,265.728 295.621,266.000 295.200 C 266.213 294.870,266.388 293.970,266.388 293.200 C 266.388 292.430,266.213 291.530,266.000 291.200 C 265.728 290.779,265.612 291.375,265.612 293.200 M213.430 292.667 C 213.289 293.034,213.360 293.520,213.587 293.747 C 213.871 294.031,214.000 293.823,214.000 293.080 C 214.000 291.846,213.800 291.701,213.430 292.667 M236.900 292.304 C 235.965 292.382,235.200 292.640,235.200 292.877 C 235.200 293.160,235.838 293.221,237.056 293.054 C 238.077 292.914,240.267 292.800,241.922 292.800 C 243.578 292.800,244.850 292.717,244.749 292.615 C 244.488 292.355,238.936 292.135,236.900 292.304 M248.426 294.631 C 248.954 295.268,249.600 295.386,249.600 294.847 C 249.600 294.652,249.230 294.396,248.777 294.278 C 248.102 294.102,248.039 294.165,248.426 294.631 M230.184 294.827 C 230.039 295.061,230.002 295.335,230.103 295.436 C 230.382 295.715,231.600 295.163,231.600 294.757 C 231.600 294.256,230.503 294.310,230.184 294.827 M228.680 296.865 C 227.912 298.092,227.425 300.155,227.984 299.810 C 228.213 299.668,228.400 299.173,228.400 298.708 C 228.400 298.243,228.699 297.533,229.064 297.129 C 229.430 296.725,229.624 296.291,229.496 296.163 C 229.368 296.035,229.001 296.351,228.680 296.865 M264.800 296.800 C 264.800 297.547,264.907 297.653,265.280 297.280 C 265.653 296.907,265.653 296.693,265.280 296.320 C 264.907 295.947,264.800 296.053,264.800 296.800 M227.629 301.800 C 227.586 303.141,229.082 305.201,230.094 305.194 L 231.000 305.188 230.039 304.694 C 229.080 304.201,228.847 303.882,228.068 302.000 C 227.714 301.145,227.650 301.116,227.629 301.800 M329.200 304.087 C 329.200 305.048,329.633 306.000,330.070 306.000 C 330.282 306.000,330.332 305.597,330.182 305.100 C 329.817 303.894,329.200 303.257,329.200 304.087 M233.478 307.060 C 233.605 307.391,234.316 307.600,235.309 307.600 C 237.259 307.600,237.032 307.208,234.852 306.809 C 233.607 306.582,233.315 306.635,233.478 307.060 M390.501 310.200 C 390.505 311.080,390.587 311.393,390.683 310.895 C 390.779 310.398,390.775 309.678,390.675 309.295 C 390.575 308.913,390.496 309.320,390.501 310.200 M213.474 309.500 C 213.378 309.665,213.445 310.160,213.622 310.600 C 213.903 311.298,213.947 311.260,213.972 310.300 C 214.000 309.215,213.812 308.914,213.474 309.500 M243.600 309.600 C 243.930 309.813,245.100 309.988,246.200 309.988 C 247.637 309.988,248.031 309.879,247.600 309.600 C 247.270 309.387,246.100 309.212,245.000 309.212 C 243.563 309.212,243.169 309.321,243.600 309.600 M88.463 310.600 C 88.454 311.040,88.595 312.120,88.777 313.000 L 89.108 314.600 89.114 313.200 C 89.117 312.430,88.976 311.350,88.800 310.800 C 88.541 309.991,88.477 309.953,88.463 310.600 M331.612 312.000 C 331.612 312.990,331.787 314.070,332.000 314.400 C 332.282 314.836,332.388 314.508,332.388 313.200 C 332.388 312.210,332.213 311.130,332.000 310.800 C 331.718 310.364,331.612 310.692,331.612 312.000 M164.032 312.220 C 164.063 313.782,164.068 313.787,164.477 312.665 C 164.770 311.860,164.761 311.401,164.445 311.085 C 164.118 310.758,164.008 311.060,164.032 312.220 M253.000 312.000 C 253.136 312.220,253.697 312.400,254.247 312.400 C 254.812 312.400,255.140 312.226,255.000 312.000 C 254.864 311.780,254.303 311.600,253.753 311.600 C 253.188 311.600,252.860 311.774,253.000 312.000 M258.200 314.400 C 258.336 314.620,258.707 314.800,259.024 314.800 C 259.341 314.800,259.600 314.620,259.600 314.400 C 259.600 314.180,259.229 314.000,258.776 314.000 C 258.323 314.000,258.064 314.180,258.200 314.400 M389.695 317.049 C 389.425 318.747,389.275 320.208,389.361 320.294 C 389.598 320.532,390.531 314.992,390.347 314.440 C 390.259 314.176,389.966 315.350,389.695 317.049 M89.301 316.600 C 89.305 317.480,89.387 317.793,89.483 317.295 C 89.579 316.798,89.575 316.078,89.475 315.695 C 89.375 315.313,89.296 315.720,89.301 316.600 M317.701 317.400 C 317.705 318.280,317.787 318.593,317.883 318.095 C 317.979 317.598,317.975 316.878,317.875 316.495 C 317.775 316.113,317.696 316.520,317.701 317.400 M333.301 319.400 C 333.305 320.280,333.387 320.593,333.483 320.095 C 333.579 319.598,333.575 318.878,333.475 318.495 C 333.375 318.113,333.296 318.520,333.301 319.400 M89.628 320.233 C 89.644 320.875,89.816 321.760,90.010 322.200 C 90.247 322.734,90.286 322.402,90.127 321.200 C 89.846 319.080,89.588 318.580,89.628 320.233 M161.600 322.067 C 161.600 325.560,161.808 325.500,162.183 321.900 C 162.374 320.060,162.326 319.200,162.032 319.200 C 161.763 319.200,161.600 320.281,161.600 322.067 M227.600 321.600 C 228.388 322.109,229.315 322.109,229.000 321.600 C 228.864 321.380,228.358 321.203,227.876 321.206 C 227.164 321.211,227.112 321.285,227.600 321.600 M268.000 324.176 C 268.000 324.739,268.180 325.200,268.400 325.200 C 268.620 325.200,268.800 324.851,268.800 324.424 C 268.800 323.997,268.620 323.536,268.400 323.400 C 268.173 323.260,268.000 323.596,268.000 324.176 M236.600 324.000 C 238.375 324.452,239.279 324.452,239.000 324.000 C 238.864 323.780,237.998 323.621,237.076 323.647 C 235.493 323.692,235.467 323.712,236.600 324.000 M388.249 325.415 C 388.112 325.773,388.015 326.366,388.034 326.733 C 388.053 327.100,388.227 326.869,388.421 326.220 C 388.798 324.958,388.665 324.333,388.249 325.415 M247.300 326.276 C 247.685 326.376,248.315 326.376,248.700 326.276 C 249.085 326.175,248.770 326.093,248.000 326.093 C 247.230 326.093,246.915 326.175,247.300 326.276 M90.856 327.200 C 90.856 327.530,91.011 328.160,91.200 328.600 C 91.417 329.104,91.544 329.178,91.544 328.800 C 91.544 328.470,91.389 327.840,91.200 327.400 C 90.983 326.896,90.856 326.822,90.856 327.200 M269.753 331.800 C 269.753 334.440,269.818 335.468,269.897 334.084 C 269.975 332.701,269.974 330.541,269.895 329.284 C 269.816 328.028,269.752 329.160,269.753 331.800 M252.538 329.387 C 252.792 329.930,253.062 330.194,253.138 329.974 C 253.334 329.405,252.895 328.400,252.450 328.400 C 252.241 328.400,252.279 328.835,252.538 329.387 M387.236 330.436 C 386.966 331.339,386.818 332.152,386.908 332.242 C 386.998 332.332,387.293 331.666,387.564 330.764 C 387.834 329.861,387.982 329.048,387.892 328.958 C 387.802 328.868,387.507 329.534,387.236 330.436 M253.720 333.200 C 253.720 334.410,253.795 334.905,253.887 334.300 C 253.978 333.695,253.978 332.705,253.887 332.100 C 253.795 331.495,253.720 331.990,253.720 333.200 M217.400 334.000 C 217.246 334.250,218.063 334.400,219.576 334.400 C 220.925 334.400,222.000 334.223,222.000 334.000 C 222.000 333.780,221.021 333.600,219.824 333.600 C 218.627 333.600,217.536 333.780,217.400 334.000 M386.091 335.300 C 385.410 337.184,385.504 337.694,386.226 336.030 C 386.553 335.277,386.766 334.499,386.701 334.302 C 386.635 334.105,386.360 334.554,386.091 335.300 M252.663 336.483 C 252.536 336.968,252.524 337.458,252.638 337.571 C 252.896 337.830,253.586 336.769,253.594 336.100 C 253.604 335.259,252.908 335.545,252.663 336.483 M317.714 337.400 C 317.717 338.500,317.795 338.903,317.887 338.295 C 317.979 337.686,317.977 336.786,317.882 336.295 C 317.787 335.803,317.711 336.300,317.714 337.400 M161.640 338.100 C 161.617 339.393,161.775 340.400,162.000 340.400 C 162.465 340.400,162.465 338.252,162.000 336.800 C 161.756 336.037,161.670 336.345,161.640 338.100 M250.204 339.110 C 249.456 339.501,249.209 339.803,249.545 339.915 C 249.841 340.014,250.465 339.713,250.931 339.247 C 251.907 338.271,251.835 338.257,250.204 339.110 M384.870 339.570 C 384.206 341.474,384.314 342.070,385.026 340.430 C 385.353 339.677,385.557 338.872,385.480 338.641 C 385.403 338.410,385.129 338.829,384.870 339.570 M94.032 339.800 C 94.030 340.240,94.286 341.050,94.600 341.600 C 95.330 342.878,95.334 342.604,94.612 340.600 C 94.295 339.720,94.034 339.360,94.032 339.800 M247.000 340.800 C 246.291 341.105,246.325 341.147,247.300 341.172 C 247.905 341.187,248.400 341.020,248.400 340.800 C 248.400 340.331,248.093 340.331,247.000 340.800 M331.900 340.933 C 331.421 342.102,331.521 344.639,332.026 344.134 C 332.260 343.900,332.395 342.919,332.326 341.954 C 332.237 340.710,332.113 340.413,331.900 340.933 M230.900 341.076 C 231.285 341.176,231.915 341.176,232.300 341.076 C 232.685 340.975,232.370 340.893,231.600 340.893 C 230.830 340.893,230.515 340.975,230.900 341.076 M233.520 341.681 C 234.002 342.162,242.104 342.469,244.000 342.079 C 245.477 341.775,244.674 341.681,239.519 341.554 C 236.064 341.469,233.365 341.526,233.520 341.681 M95.214 343.654 C 95.206 343.794,95.463 344.514,95.784 345.254 C 96.106 345.994,96.369 346.330,96.370 346.000 C 96.372 345.424,95.243 343.134,95.214 343.654 M164.025 346.780 C 164.008 347.727,164.129 348.031,164.412 347.748 C 164.685 347.475,164.694 347.009,164.438 346.368 C 164.074 345.458,164.049 345.483,164.025 346.780 M96.416 347.054 C 96.407 347.304,96.663 348.114,96.984 348.854 C 97.306 349.594,97.576 349.996,97.584 349.746 C 97.593 349.496,97.337 348.686,97.016 347.946 C 96.694 347.206,96.424 346.804,96.416 347.054 M314.230 348.267 C 314.089 348.634,314.160 349.120,314.387 349.347 C 314.671 349.631,314.800 349.423,314.800 348.680 C 314.800 347.446,314.600 347.301,314.230 348.267 M329.476 350.147 C 329.303 350.778,329.260 351.393,329.381 351.514 C 329.798 351.931,330.060 351.269,329.925 350.137 L 329.790 349.000 329.476 350.147 M311.879 353.357 C 311.715 353.774,311.675 354.209,311.791 354.324 C 312.155 354.689,312.476 354.091,312.324 353.331 C 312.183 352.635,312.162 352.636,311.879 353.357 M379.679 354.791 C 379.220 355.896,378.931 356.800,379.036 356.800 C 379.304 356.800,380.855 353.122,380.667 352.934 C 380.583 352.850,380.139 353.685,379.679 354.791 M98.828 353.800 C 98.828 354.020,99.086 354.650,99.400 355.200 C 99.714 355.750,99.972 356.020,99.972 355.800 C 99.972 355.580,99.714 354.950,99.400 354.400 C 99.086 353.850,98.828 353.580,98.828 353.800 M224.000 354.000 C 224.788 354.509,226.400 354.509,226.400 354.000 C 226.400 353.780,225.725 353.603,224.900 353.606 C 223.784 353.611,223.554 353.712,224.000 354.000 M252.000 354.000 C 252.000 354.508,253.214 354.508,254.000 354.000 C 254.455 353.706,254.286 353.611,253.300 353.606 C 252.585 353.603,252.000 353.780,252.000 354.000 M228.900 355.476 C 229.285 355.576,229.915 355.576,230.300 355.476 C 230.685 355.375,230.370 355.293,229.600 355.293 C 228.830 355.293,228.515 355.375,228.900 355.476 M247.348 356.100 C 247.481 356.595,247.626 358.530,247.672 360.400 L 247.755 363.800 247.977 359.817 C 248.191 355.991,248.239 355.823,249.200 355.557 C 250.041 355.324,249.955 355.273,248.653 355.240 C 247.237 355.203,247.127 355.276,247.348 356.100 M232.263 355.883 C 231.553 356.066,231.554 356.092,232.285 356.604 C 232.934 357.059,233.030 357.580,232.950 360.209 C 232.898 361.899,233.012 363.668,233.203 364.141 C 233.429 364.702,233.558 363.368,233.575 360.300 C 233.589 357.715,233.465 355.621,233.300 355.646 C 233.135 355.672,232.668 355.778,232.263 355.883 M101.018 359.080 C 101.979 361.251,102.400 361.994,102.400 361.516 C 102.400 361.093,100.407 356.800,100.210 356.800 C 100.100 356.800,100.464 357.826,101.018 359.080 M375.050 365.250 C 374.461 366.385,374.043 367.376,374.120 367.453 C 374.197 367.530,374.739 366.662,375.325 365.525 C 375.911 364.388,376.330 363.396,376.255 363.322 C 376.181 363.248,375.639 364.115,375.050 365.250 M103.200 363.747 C 103.200 364.180,105.188 368.000,105.413 368.000 C 105.523 368.000,105.139 367.055,104.559 365.900 C 103.443 363.679,103.200 363.294,103.200 363.747 M180.400 368.820 C 182.045 369.936,182.629 370.127,181.717 369.249 C 181.231 368.782,180.601 368.403,180.317 368.406 C 179.947 368.411,179.971 368.528,180.400 368.820 M239.300 369.076 C 239.685 369.176,240.315 369.176,240.700 369.076 C 241.085 368.975,240.770 368.893,240.000 368.893 C 239.230 368.893,238.915 368.975,239.300 369.076 M183.475 370.679 C 183.187 371.144,185.067 372.266,185.466 371.867 C 185.613 371.720,185.498 371.600,185.211 371.600 C 184.923 371.600,184.471 371.303,184.205 370.939 C 183.919 370.548,183.621 370.442,183.475 370.679 M186.400 373.200 C 186.400 373.420,186.805 373.597,187.300 373.594 C 188.028 373.589,188.085 373.514,187.600 373.200 C 186.824 372.699,186.400 372.699,186.400 373.200 M108.839 374.576 C 109.301 375.359,109.756 376.000,109.850 376.000 C 110.134 376.000,108.836 373.669,108.402 373.401 C 108.180 373.264,108.377 373.793,108.839 374.576 M314.100 375.398 C 313.442 376.146,313.467 376.426,314.169 376.157 C 314.770 375.926,315.379 374.789,314.887 374.815 C 314.729 374.824,314.375 375.086,314.100 375.398 M190.800 375.600 C 190.800 375.820,191.171 376.000,191.624 376.000 C 192.077 376.000,192.336 375.820,192.200 375.600 C 192.064 375.380,191.693 375.200,191.376 375.200 C 191.059 375.200,190.800 375.380,190.800 375.600 M289.800 375.600 C 289.664 375.820,289.923 376.000,290.376 376.000 C 290.829 376.000,291.200 375.820,291.200 375.600 C 291.200 375.380,290.941 375.200,290.624 375.200 C 290.307 375.200,289.936 375.380,289.800 375.600 M195.600 378.000 C 195.600 378.220,196.095 378.397,196.700 378.394 C 197.557 378.389,197.668 378.302,197.200 378.000 C 196.417 377.494,195.600 377.494,195.600 378.000 M284.764 378.031 C 284.353 378.291,284.499 378.389,285.300 378.394 C 286.494 378.401,286.710 378.204,285.864 377.880 C 285.569 377.767,285.074 377.835,284.764 378.031 M111.560 379.000 C 112.234 380.305,112.788 381.028,112.785 380.600 C 112.783 380.380,112.414 379.750,111.964 379.200 C 111.421 378.536,111.285 378.469,111.560 379.000 M198.500 379.076 C 198.885 379.176,199.515 379.176,199.900 379.076 C 200.285 378.975,199.970 378.893,199.200 378.893 C 198.430 378.893,198.115 378.975,198.500 379.076 M202.200 380.400 C 202.336 380.620,202.807 380.800,203.247 380.800 C 203.687 380.800,203.936 380.620,203.800 380.400 C 203.664 380.180,203.193 380.000,202.753 380.000 C 202.313 380.000,202.064 380.180,202.200 380.400 M204.800 381.200 C 204.800 381.420,205.565 381.582,206.500 381.560 C 207.944 381.526,208.050 381.472,207.200 381.200 C 205.761 380.739,204.800 380.739,204.800 381.200 M365.457 382.100 L 364.742 383.400 365.571 382.456 C 366.287 381.640,366.650 380.800,366.286 380.800 C 366.224 380.800,365.851 381.385,365.457 382.100 M113.600 382.400 C 114.070 383.060,114.544 383.600,114.654 383.600 C 114.764 383.600,114.470 383.060,114.000 382.400 C 113.530 381.740,113.056 381.200,112.946 381.200 C 112.836 381.200,113.130 381.740,113.600 382.400 M274.705 381.483 C 275.202 381.579,275.922 381.575,276.305 381.475 C 276.687 381.375,276.280 381.296,275.400 381.301 C 274.520 381.305,274.207 381.387,274.705 381.483 M218.200 383.600 C 218.640 383.789,221.700 383.927,225.000 383.906 L 231.000 383.868 227.000 383.581 C 221.257 383.169,217.217 383.178,218.200 383.600 M260.800 383.600 C 259.697 383.832,260.036 383.905,262.400 383.941 C 264.050 383.967,265.670 383.813,266.000 383.600 C 266.716 383.137,262.999 383.137,260.800 383.600 M115.473 385.100 C 116.508 386.745,117.600 388.145,117.600 387.826 C 117.600 387.462,115.222 384.000,114.972 384.000 C 114.867 384.000,115.093 384.495,115.473 385.100 M118.015 388.200 C 118.017 388.420,118.386 389.050,118.836 389.600 C 119.379 390.264,119.515 390.331,119.240 389.800 C 118.566 388.495,118.012 387.772,118.015 388.200 M360.344 389.500 C 359.193 390.889,358.706 391.600,358.904 391.600 C 359.014 391.600,359.586 390.970,360.173 390.200 C 361.263 388.771,361.395 388.232,360.344 389.500 M189.200 390.855 C 189.200 391.045,189.650 391.200,190.200 391.200 C 190.750 391.200,191.200 391.131,191.200 391.047 C 191.200 390.962,190.750 390.807,190.200 390.702 C 189.650 390.597,189.200 390.666,189.200 390.855 M290.000 391.145 C 290.000 391.334,290.450 391.403,291.000 391.298 C 291.550 391.193,292.000 391.038,292.000 390.953 C 292.000 390.869,291.550 390.800,291.000 390.800 C 290.450 390.800,290.000 390.955,290.000 391.145 M122.209 393.970 C 123.233 395.274,124.446 396.669,124.903 397.070 C 125.361 397.472,124.599 396.405,123.211 394.700 C 120.252 391.068,119.496 390.517,122.209 393.970 M357.407 393.113 C 356.970 393.711,354.998 396.090,353.024 398.400 C 351.050 400.710,349.741 402.353,350.116 402.052 C 351.190 401.188,358.888 391.999,358.525 392.013 C 358.346 392.019,357.843 392.514,357.407 393.113 M195.200 393.200 C 195.200 393.420,195.875 393.597,196.700 393.594 C 197.816 393.589,198.046 393.488,197.600 393.200 C 196.812 392.691,195.200 392.691,195.200 393.200 M284.000 393.200 C 283.543 393.495,283.705 393.589,284.676 393.594 C 285.378 393.597,286.064 393.420,286.200 393.200 C 286.517 392.687,284.793 392.687,284.000 393.200 M203.000 395.600 C 203.136 395.820,204.002 395.997,204.924 395.994 C 206.153 395.989,206.440 395.884,206.000 395.600 C 205.198 395.082,202.680 395.082,203.000 395.600 M275.600 395.600 C 275.150 395.891,275.350 395.988,276.400 395.988 C 277.170 395.988,278.070 395.813,278.400 395.600 C 278.850 395.309,278.650 395.212,277.600 395.212 C 276.830 395.212,275.930 395.387,275.600 395.600 M215.335 398.089 C 216.375 398.365,217.277 398.365,218.135 398.089 C 219.247 397.731,219.061 397.682,216.600 397.682 C 213.963 397.683,213.889 397.706,215.335 398.089 M262.400 398.008 C 262.400 398.430,267.869 398.264,268.305 397.829 C 268.430 397.703,267.153 397.600,265.467 397.600 C 263.650 397.600,262.400 397.766,262.400 398.008 M126.314 398.600 C 126.547 399.040,127.510 400.120,128.455 401.000 C 130.152 402.580,129.609 401.897,126.073 398.000 C 125.973 397.890,126.082 398.160,126.314 398.600 M135.000 407.600 C 136.306 408.920,137.465 410.000,137.575 410.000 C 137.685 410.000,136.706 408.920,135.400 407.600 C 134.094 406.280,132.935 405.200,132.825 405.200 C 132.715 405.200,133.694 406.280,135.000 407.600 M138.917 411.059 C 139.261 411.624,144.000 415.753,144.000 415.488 C 144.000 415.384,142.793 414.241,141.318 412.949 C 139.843 411.657,138.763 410.806,138.917 411.059 M337.000 414.273 C 335.395 415.721,336.013 415.413,338.131 413.709 C 338.753 413.209,339.113 412.807,338.931 412.815 C 338.749 412.823,337.880 413.480,337.000 414.273 M333.775 416.900 L 332.600 418.200 333.900 417.025 C 334.615 416.379,335.200 415.794,335.200 415.725 C 335.200 415.416,334.870 415.688,333.775 416.900 M147.543 418.300 C 148.308 419.015,149.123 419.600,149.356 419.600 C 149.588 419.600,149.333 419.302,148.789 418.938 C 148.245 418.573,147.430 417.988,146.977 417.638 C 146.524 417.287,146.779 417.585,147.543 418.300 M330.600 419.232 C 328.227 421.026,327.908 421.532,330.133 419.972 C 331.814 418.794,332.729 417.975,332.324 418.011 C 332.256 418.017,331.480 418.567,330.600 419.232 M150.000 420.118 C 150.000 420.210,151.080 421.042,152.400 421.968 C 153.720 422.894,154.800 423.566,154.800 423.463 C 154.800 423.360,153.945 422.664,152.900 421.917 C 150.603 420.275,150.000 419.901,150.000 420.118 M324.200 423.835 L 323.000 424.866 324.300 424.006 C 325.015 423.533,325.600 423.068,325.600 422.973 C 325.600 422.673,325.431 422.778,324.200 423.835 M160.833 427.346 C 161.387 427.832,164.400 429.575,164.400 429.410 C 164.400 429.165,161.324 427.200,160.941 427.200 C 160.790 427.200,160.742 427.266,160.833 427.346 M317.100 428.229 C 316.275 428.770,315.600 429.293,315.600 429.392 C 315.600 429.657,318.363 427.983,318.625 427.560 C 318.936 427.057,318.798 427.117,317.100 428.229 M307.200 433.600 C 306.430 434.022,305.980 434.366,306.200 434.366 C 306.420 434.366,307.230 434.022,308.000 433.600 C 308.770 433.178,309.220 432.834,309.000 432.834 C 308.780 432.834,307.970 433.178,307.200 433.600 M176.800 435.800 C 177.350 436.114,177.980 436.372,178.200 436.372 C 178.420 436.372,178.150 436.114,177.600 435.800 C 177.050 435.486,176.420 435.228,176.200 435.228 C 175.980 435.228,176.250 435.486,176.800 435.800 M302.624 435.813 C 301.625 436.568,301.995 436.563,303.454 435.802 C 304.084 435.474,304.330 435.210,304.000 435.215 C 303.670 435.221,303.051 435.490,302.624 435.813 M299.824 437.013 C 298.825 437.768,299.195 437.763,300.654 437.002 C 301.284 436.674,301.530 436.410,301.200 436.415 C 300.870 436.421,300.251 436.690,299.824 437.013 M182.400 438.200 C 182.950 438.514,183.670 438.771,184.000 438.770 C 184.330 438.769,183.994 438.506,183.254 438.184 C 181.551 437.445,181.094 437.453,182.400 438.200 M185.600 439.400 C 186.150 439.714,186.780 439.972,187.000 439.972 C 187.220 439.972,186.950 439.714,186.400 439.400 C 185.850 439.086,185.220 438.828,185.000 438.828 C 184.780 438.828,185.050 439.086,185.600 439.400 M294.000 439.400 C 293.450 439.714,293.180 439.972,293.400 439.972 C 293.620 439.972,294.250 439.714,294.800 439.400 C 295.350 439.086,295.620 438.828,295.400 438.828 C 295.180 438.828,294.550 439.086,294.000 439.400 M290.600 440.614 C 289.940 440.917,289.670 441.166,290.000 441.168 C 290.330 441.170,291.050 440.914,291.600 440.600 C 292.865 439.877,292.189 439.887,290.600 440.614 M191.800 441.618 C 192.900 442.048,193.980 442.389,194.200 442.377 C 194.801 442.344,191.094 440.845,190.400 440.841 C 190.070 440.839,190.700 441.189,191.800 441.618 M279.600 444.000 C 279.067 444.345,279.067 444.388,279.600 444.388 C 279.930 444.388,280.470 444.213,280.800 444.000 C 281.333 443.655,281.333 443.612,280.800 443.612 C 280.470 443.612,279.930 443.787,279.600 444.000 M210.200 446.400 C 210.640 446.589,211.360 446.744,211.800 446.744 L 212.600 446.744 211.800 446.400 C 211.360 446.211,210.640 446.056,210.200 446.056 L 209.400 446.056 210.200 446.400 M269.000 446.400 C 268.496 446.617,268.422 446.744,268.800 446.744 C 269.130 446.744,269.760 446.589,270.200 446.400 C 270.704 446.183,270.778 446.056,270.400 446.056 C 270.070 446.056,269.440 446.211,269.000 446.400 M222.700 448.282 C 223.195 448.378,224.005 448.378,224.500 448.282 C 224.995 448.187,224.590 448.109,223.600 448.109 C 222.610 448.109,222.205 448.187,222.700 448.282 M256.100 448.276 C 256.485 448.376,257.115 448.376,257.500 448.276 C 257.885 448.175,257.570 448.093,256.800 448.093 C 256.030 448.093,255.715 448.175,256.100 448.276 M227.400 448.796 C 229.485 449.144,233.056 449.312,232.767 449.048 C 232.675 448.965,230.980 448.799,229.000 448.680 C 226.348 448.520,225.927 448.551,227.400 448.796 M249.200 448.800 L 246.600 449.062 249.200 449.101 C 250.630 449.123,252.610 448.997,253.600 448.820 L 255.400 448.500 253.600 448.519 C 252.610 448.530,250.630 448.656,249.200 448.800 " stroke="none" fill="#247c7c" fill-rule="evenodd"></path></g></svg>